<svg xmlns="http://www.w3.org/2000/svg" width="189" height="47" viewBox="0 0 189 47" fill="none">
  <mask id="mask0_63_3193" style="mask-type:luminance" maskUnits="userSpaceOnUse" x="0" y="0" width="189" height="47">
    <path d="M188.978 0.194336H0.0345459V46.5821H188.978V0.194336Z" fill="white"/>
  </mask>
  <g mask="url(#mask0_63_3193)">
    <path d="M54.1725 33.3228H56.4697L58.2597 28.5793H67.4483L69.0295 33.3228H71.5056L64.2263 12.4395H62.2275L54.1725 33.3228ZM63.1225 15.5422H63.1523L66.792 26.5507H59.0055L63.1225 15.5422ZM74.6777 18.7642V40.7811H76.7063V31.8908C77.9593 33.0543 79.7195 33.6808 81.3603 33.6808C85.6265 33.6808 88.8484 30.1306 88.8484 25.9838C88.8484 21.837 85.6563 18.4062 81.3902 18.4062C79.6002 18.4062 77.8102 19.1819 76.7063 20.6437V18.7642H74.6777ZM76.7063 23.0005C77.5417 21.3 79.5405 20.2559 81.3305 20.2559C84.5226 20.2559 86.7601 22.9707 86.7601 26.1032C86.7601 29.2058 84.4928 31.8311 81.3305 31.8311C79.6598 31.8311 77.7803 30.9361 76.7063 29.534V23.0005ZM92.9447 18.7642V40.7811H94.9733V31.8908C96.2263 33.0543 97.9865 33.6808 99.6273 33.6808C103.893 33.6808 107.115 30.1306 107.115 25.9838C107.115 21.837 103.923 18.4062 99.6572 18.4062C97.8672 18.4062 96.0772 19.1819 94.9733 20.6437V18.7642H92.9447ZM94.9733 23.0005C95.8087 21.3 97.8075 20.2559 99.5975 20.2559C102.79 20.2559 105.027 22.9707 105.027 26.1032C105.027 29.2058 102.76 31.8311 99.5975 31.8311C97.9268 31.8311 96.0473 30.9361 94.9733 29.534V23.0005ZM129.47 15.6914L130.931 14.0804C129.171 12.7379 127.113 12.0815 124.726 12.0815C121.444 12.0815 118.61 13.8417 118.61 17.6604C118.61 21.0614 121.683 22.1353 124.547 23.2093C127.083 24.164 129.47 25.0888 129.47 27.5948C129.47 30.3991 127.172 31.6521 124.786 31.6521C122.727 31.6521 121.146 31.324 119.088 29.2356L117.417 30.7273C119.565 32.8454 121.802 33.6808 124.756 33.6808C127.739 33.6808 131.826 31.9206 131.826 27.2368C131.826 23.7463 129.112 22.4337 126.397 21.4194C123.652 20.405 120.878 19.689 120.878 17.362C120.878 15.3334 122.518 14.1102 125.084 14.1102C126.725 14.1102 128.575 14.7964 129.47 15.6914ZM143.413 20.6139V18.7642H139.177V15.1245H137.148V18.7642H135.089V20.6139H137.148V28.8776C137.148 31.8908 138.55 33.5913 141.384 33.5913C142.249 33.5913 143.055 33.3228 143.711 32.9648L143.204 31.3538C142.548 31.5925 141.951 31.7416 141.414 31.7416C140.072 31.7416 139.177 31.2643 139.177 28.639V20.6139H143.413ZM152.897 18.4062C148.571 18.4062 145.558 21.8072 145.558 26.0435C145.558 30.2798 148.571 33.6808 152.897 33.6808C157.223 33.6808 160.236 30.2798 160.236 26.0435C160.236 21.8072 157.223 18.4062 152.897 18.4062ZM158.148 26.0435C158.148 29.0865 156.149 31.8311 152.897 31.8311C149.645 31.8311 147.647 29.0865 147.647 26.0435C147.647 23.0005 149.645 20.2559 152.897 20.2559C156.149 20.2559 158.148 23.0005 158.148 26.0435ZM166.351 18.7642H164.323V33.3228H166.351V23.5972C167.395 21.7475 168.499 20.4945 170.17 20.4945C170.736 20.4945 171.094 20.5542 171.542 20.763L171.81 18.5255C171.393 18.436 170.975 18.4062 170.587 18.4062C168.559 18.4062 167.156 19.8979 166.351 21.5089V18.7642ZM186.866 26.5507C186.896 26.2822 186.956 25.6855 186.956 25.2082C186.956 21.5984 184.241 18.4062 180.482 18.4062C176.514 18.4062 173.352 21.658 173.352 25.954C173.352 30.2201 175.947 33.6808 180.721 33.6808C182.928 33.6808 185.464 32.5471 186.628 30.3693L185.196 29.4445C184.151 31.4135 182.511 31.9505 180.571 31.9505C177.409 31.9505 175.559 29.355 175.38 26.5507H186.866ZM184.957 24.8203H175.44C175.858 22.1055 177.678 20.1365 180.482 20.1365C182.958 20.1365 184.838 22.374 184.957 24.8203Z" fill="#304761"/>
    <path fill-rule="evenodd" clip-rule="evenodd" d="M27.7205 21.3475C27.7615 18.2486 29.4255 15.3862 32.1297 13.7631C30.416 11.3737 27.6486 9.91304 24.6621 9.82182C21.5204 9.49985 18.4744 11.6573 16.8734 11.6573C15.2413 11.6573 12.7762 9.85378 10.1218 9.90711C6.6292 10.0173 3.45209 11.9089 1.75287 14.89C-1.86567 21.0064 0.83344 29.9953 4.29969 34.9393C6.03395 37.3602 8.06078 40.0646 10.7128 39.9687C13.3081 39.8636 14.2773 38.353 17.41 38.353C20.5135 38.353 21.4229 39.9687 24.1288 39.9077C26.9135 39.8636 28.6681 37.4759 30.3415 35.0321C31.5876 33.3071 32.5464 31.4006 33.1825 29.3832C29.875 28.0175 27.7243 24.8535 27.7205 21.3475Z" fill="#233053"/>
    <path fill-rule="evenodd" clip-rule="evenodd" d="M22.6051 6.57046C24.1237 4.79093 24.8716 2.50364 24.6905 0.194336C22.3708 0.432202 20.2279 1.5146 18.689 3.22585C17.1695 4.91424 16.3996 7.1231 16.5491 9.36592C18.9 9.38956 21.132 8.35922 22.6051 6.57046Z" fill="#233053"/>
  </g>
</svg>