<svg xmlns="http://www.w3.org/2000/svg" width="41" height="40" viewBox="0 0 41 40" fill="none">
  <g clip-path="url(#clip0_353_2329)">
    <path d="M20.8018 0C16.8461 0 12.9793 1.17298 9.69036 3.37061C6.40138 5.56824 3.83793 8.69181 2.32418 12.3463C0.810424 16.0009 0.414357 20.0222 1.18606 23.9018C1.95777 27.7814 3.86258 31.3451 6.65963 34.1421C9.45668 36.9392 13.0203 38.844 16.9 39.6157C20.7796 40.3874 24.8009 39.9913 28.4554 38.4776C32.11 36.9638 35.2335 34.4004 37.4312 31.1114C39.6288 27.8224 40.8018 23.9556 40.8018 20C40.796 14.6974 38.6871 9.61368 34.9376 5.8642C31.1881 2.11471 26.1043 0.00573514 20.8018 0ZM20.8018 5C23.9145 5.00035 26.9491 5.97477 29.4801 7.78667L8.58843 28.6767C6.9891 26.4357 6.03845 23.7972 5.84094 21.0511C5.64342 18.305 6.2067 15.5576 7.46886 13.1108C8.73103 10.6639 10.6432 8.61238 12.9954 7.18151C15.3475 5.75063 18.0486 4.99582 20.8018 5ZM20.8018 35C17.6895 34.9999 14.6554 34.0254 12.1251 32.2133L33.0151 11.3217C34.6149 13.5627 35.5659 16.2014 35.7637 18.9477C35.9615 21.694 35.3983 24.4418 34.1361 26.8889C32.8738 29.336 30.9614 31.3877 28.609 32.8187C26.2566 34.2497 23.5552 35.0044 20.8018 35Z" fill="#3F37C9"/>
  </g>
  <defs>
    <clipPath id="clip0_353_2329">
      <rect width="40" height="40" fill="white" transform="translate(0.801758)"/>
    </clipPath>
  </defs>
</svg>