<svg xmlns="http://www.w3.org/2000/svg" width="16" height="16" viewBox="0 0 16 16" fill="none">
  <g clip-path="url(#clip0_515_3384)">
    <path d="M8.32991 0.664307C4.16442 0.664307 0.787598 4.04113 0.787598 8.20661C0.787598 12.3721 4.16442 15.7489 8.32991 15.7489C12.4954 15.7489 15.8722 12.3721 15.8722 8.20661C15.8722 4.04113 12.4954 0.664307 8.32991 0.664307ZM13.0044 6.21202L13.4914 4.63749C14.1476 5.58868 14.5267 6.70342 14.5865 7.85747L13.2422 6.91049C13.02 6.75379 12.924 6.4718 13.0044 6.21202ZM9.9595 2.14232H9.95447L8.69935 3.05603C8.47934 3.21596 8.18135 3.21596 7.96134 3.05603L6.70622 2.14232C7.77055 1.84697 8.89517 1.84697 9.9595 2.14232ZM3.16431 4.63811L3.65131 6.21202C3.73173 6.4718 3.63569 6.75379 3.41347 6.91049L2.06925 7.85747C2.129 6.70363 2.50812 5.58906 3.16431 4.63811ZM3.31181 11.9516L5.03571 11.9573C5.30785 11.9579 5.54862 12.1337 5.6319 12.3928L6.17411 14.0828C5.03442 13.6633 4.04037 12.9232 3.31181 11.9516ZM10.4822 14.0828L11.0238 12.3928C11.107 12.1339 11.3475 11.9581 11.6194 11.9573L13.3439 11.9516C12.6157 12.9233 11.6218 13.6635 10.4822 14.0828ZM14.0819 10.694L11.6156 10.7022C10.799 10.7032 10.0768 11.2319 9.82895 12.01L9.05391 14.4261C8.57177 14.4872 8.08386 14.4872 7.60176 14.4261L6.82672 12.0094C6.57862 11.2313 5.85608 10.7029 5.03945 10.7022L2.57378 10.6946C2.38401 10.2568 2.24525 9.79861 2.16021 9.32909L4.13639 7.93654C4.80438 7.4677 5.09305 6.62103 4.85054 5.84175L4.13827 3.53737C4.49821 3.21029 4.89498 2.92618 5.32058 2.69079L7.22081 4.0714C7.88039 4.5526 8.77524 4.5526 9.43482 4.0714L11.335 2.69079C11.7606 2.92633 12.1573 3.2104 12.5174 3.53737L11.8051 5.84175C11.5626 6.621 11.8513 7.46767 12.5192 7.93654L14.4954 9.32909C14.4105 9.79844 14.2717 10.2564 14.0819 10.694Z" fill="#70C01A"/>
    <path d="M10.4531 6.45434L9.25003 5.58078C8.70085 5.17978 7.95544 5.17978 7.40629 5.58078L6.20326 6.45434C5.65091 6.85344 5.42043 7.56417 5.63344 8.21149L6.09281 9.62537C6.30275 10.2713 6.90532 10.708 7.58449 10.7066H9.0718C9.75165 10.7067 10.3542 10.2689 10.5641 9.62222L11.0229 8.20834C11.2346 7.56197 11.0042 6.85288 10.4531 6.45434ZM9.82925 7.82051L9.37049 9.23439C9.32858 9.36391 9.20791 9.4516 9.07177 9.45151H7.58446C7.44856 9.45134 7.32824 9.36368 7.28638 9.23439L6.82704 7.81989C6.78477 7.69037 6.83093 7.54838 6.94127 7.46845L8.14367 6.59616C8.25369 6.5162 8.40269 6.5162 8.51268 6.59616L9.7157 7.46972C9.82548 7.54973 9.87134 7.69131 9.82925 7.82051Z" fill="#70C01A"/>
  </g>
  <defs>
    <clipPath id="clip0_515_3384">
      <rect width="15.0613" height="15.0613" fill="white" transform="translate(0.797485 0.665771)"/>
    </clipPath>
  </defs>
</svg>