<svg xmlns="http://www.w3.org/2000/svg" width="16" height="17" viewBox="0 0 16 17" fill="none">
  <g clip-path="url(#clip0_515_3377)">
    <path d="M9.61097 5.37231H6.47319C6.22354 5.37231 5.9841 5.47149 5.80757 5.64802C5.63104 5.82456 5.53186 6.06399 5.53186 6.31365C5.53186 6.5633 5.63104 6.80274 5.80757 6.97927C5.9841 7.1558 6.22354 7.25498 6.47319 7.25498H9.61097C9.86062 7.25498 10.1001 7.1558 10.2766 6.97927C10.4531 6.80274 10.5523 6.5633 10.5523 6.31365C10.5523 6.06399 10.4531 5.82456 10.2766 5.64802C10.1001 5.47149 9.86062 5.37231 9.61097 5.37231Z" fill="#46D7E2"/>
    <path d="M8.35586 8.51013H6.47319C6.22354 8.51013 5.9841 8.60931 5.80757 8.78584C5.63104 8.96238 5.53186 9.20181 5.53186 9.45146C5.53186 9.70112 5.63104 9.94055 5.80757 10.1171C5.9841 10.2936 6.22354 10.3928 6.47319 10.3928H8.35586C8.60551 10.3928 8.84495 10.2936 9.02148 10.1171C9.19801 9.94055 9.29719 9.70112 9.29719 9.45146C9.29719 9.20181 9.19801 8.96238 9.02148 8.78584C8.84495 8.60931 8.60551 8.51013 8.35586 8.51013Z" fill="#46D7E2"/>
    <path d="M10.2384 0.979492H5.84547C4.93037 0.980489 4.05303 1.34445 3.40596 1.99153C2.75888 2.6386 2.39492 3.51594 2.39392 4.43104V15.0995C2.39387 15.26 2.43486 15.4178 2.51299 15.558C2.59111 15.6982 2.70378 15.8161 2.8403 15.9005C2.97681 15.9848 3.13264 16.0329 3.29297 16.0401C3.45329 16.0474 3.6128 16.0134 3.75634 15.9417L5.81598 14.9112L7.57313 15.9153C7.71533 15.9965 7.87627 16.0393 8.04003 16.0393C8.2038 16.0393 8.36473 15.9965 8.50693 15.9153L10.2641 14.9112L12.3237 15.9417C12.4674 16.0143 12.6273 16.0489 12.7882 16.0422C12.949 16.0354 13.1055 15.9875 13.2425 15.903C13.3796 15.8185 13.4927 15.7002 13.571 15.5596C13.6493 15.4189 13.6903 15.2605 13.6899 15.0995V4.43104C13.6889 3.51594 13.3249 2.6386 12.6779 1.99153C12.0308 1.34445 11.1535 0.980489 10.2384 0.979492ZM11.8072 13.5764L10.6588 13.0022C10.5202 12.9329 10.3667 12.8988 10.2118 12.9031C10.0568 12.9074 9.90539 12.9498 9.77083 13.0267L8.04191 14.0151L6.313 13.0285C6.17844 12.9517 6.02698 12.9092 5.87207 12.905C5.71717 12.9007 5.5636 12.9347 5.42501 13.0041L4.27659 13.5764V4.43104C4.27659 4.01495 4.44188 3.6159 4.7361 3.32167C5.03033 3.02745 5.42938 2.86216 5.84547 2.86216H10.2384C10.6545 2.86216 11.0535 3.02745 11.3477 3.32167C11.642 3.6159 11.8072 4.01495 11.8072 4.43104V13.5764Z" fill="#46D7E2"/>
  </g>
  <defs>
    <clipPath id="clip0_515_3377">
      <rect width="15.0613" height="15.0613" fill="white" transform="translate(0.511353 0.979492)"/>
    </clipPath>
  </defs>
</svg>