<svg xmlns="http://www.w3.org/2000/svg" width="41" height="41" viewBox="0 0 41 41" fill="none">
  <g clip-path="url(#clip0_286_12418)">
    <path d="M40.5 20.8355C40.5 31.8689 31.5333 40.8355 20.5 40.8355C9.46667 40.8355 0.5 31.8689 0.5 20.8355C0.5 9.8022 9.46667 0.835532 20.5 0.835532C20.8167 0.835532 21.1333 0.835532 21.45 0.852198C22.8333 0.918865 23.9 2.08553 23.8333 3.46887C23.7667 4.8522 22.6333 5.88553 21.2167 5.8522C20.9833 5.8522 20.7333 5.83553 20.5 5.83553C12.2333 5.83553 5.5 12.5689 5.5 20.8355C5.5 29.1022 12.2333 35.8355 20.5 35.8355C28.7667 35.8355 35.5 29.1022 35.5 20.8355C35.5 20.6022 35.5 20.3522 35.4833 20.1189C35.4167 18.7355 36.4833 17.5689 37.8667 17.5022C39.2833 17.4522 40.4167 18.5022 40.4833 19.8855C40.4833 20.2022 40.5 20.5189 40.5 20.8355ZM18.6833 14.4189C20.0167 14.0355 20.7833 12.6689 20.4167 11.3355C20.05 10.0022 18.65 9.23553 17.3333 9.6022C12.3333 11.0189 8.85 15.6355 8.85 20.8355C8.85 27.2689 14.0833 32.5022 20.5167 32.5022C25.7167 32.5022 30.3333 29.0189 31.75 24.0189C32.1333 22.6855 31.35 21.3022 30.0167 20.9355C28.6833 20.5522 27.3 21.3355 26.9333 22.6689C26.1333 25.5189 23.4833 27.5189 20.5167 27.5189C16.8333 27.5189 13.85 24.5355 13.85 20.8522C13.85 17.8855 15.85 15.2355 18.7 14.4355L18.6833 14.4189ZM18.7333 19.0689C17.75 20.0522 17.75 21.6355 18.7333 22.6022C19.2167 23.0855 19.8667 23.3355 20.5 23.3355C21.1333 23.3355 21.7833 23.0855 22.2667 22.6022L30.7 14.1689H34.6667C35.3333 14.1689 35.9667 13.9022 36.4333 13.4355L39.7667 10.1022C40.4833 9.38553 40.7 8.31887 40.3167 7.38553C39.9333 6.4522 39.0167 5.83553 38 5.83553H35.5V3.33553C35.5 2.31887 34.8833 1.41887 33.95 1.01887C33.0167 0.635532 31.9333 0.852198 31.2333 1.56887L27.9 4.9022C27.4333 5.36887 27.1667 6.0022 27.1667 6.66887V10.6355L18.7333 19.0689Z" fill="#3F37C9"/>
  </g>
  <defs>
    <clipPath id="clip0_286_12418">
      <rect width="40" height="40" fill="white" transform="translate(0.5 0.835449)"/>
    </clipPath>
  </defs>
</svg>