<svg xmlns="http://www.w3.org/2000/svg" width="40" height="40" viewBox="0 0 40 40" fill="none">
  <g clip-path="url(#clip0_512_2310)">
    <path d="M10.8793 26.7378C12.2435 26.7378 13.3494 25.6319 13.3494 24.2678C13.3494 22.9036 12.2435 21.7977 10.8793 21.7977C9.51517 21.7977 8.4093 22.9036 8.4093 24.2678C8.4093 25.6319 9.51517 26.7378 10.8793 26.7378Z" fill="#5A53D0"/>
    <path d="M30.6396 5.33069H9.23266C6.83146 5.3333 4.52936 6.28833 2.83146 7.98624C1.13355 9.68414 0.178519 11.9862 0.175903 14.3874L0.175903 25.9142C0.178519 28.3154 1.13355 30.6175 2.83146 32.3154C4.52936 34.0133 6.83146 34.9684 9.23266 34.971H30.6396C33.0408 34.9684 35.3429 34.0133 37.0408 32.3154C38.7387 30.6175 39.6937 28.3154 39.6963 25.9142V14.3874C39.6937 11.9862 38.7387 9.68414 37.0408 7.98624C35.3429 6.28833 33.0408 5.3333 30.6396 5.33069ZM9.23266 10.2707H30.6396C31.5883 10.2709 32.5079 10.5988 33.2427 11.1989C33.9775 11.799 34.4825 12.6345 34.6723 13.5641H5.19994C5.38968 12.6345 5.89469 11.799 6.62952 11.1989C7.36436 10.5988 8.28392 10.2709 9.23266 10.2707ZM30.6396 30.0309H9.23266C8.14084 30.0309 7.09374 29.5972 6.32171 28.8252C5.54968 28.0532 5.11595 27.0061 5.11595 25.9142V18.5042H34.7563V25.9142C34.7563 27.0061 34.3225 28.0532 33.5505 28.8252C32.7785 29.5972 31.7314 30.0309 30.6396 30.0309Z" fill="#5A53D0"/>
  </g>
  <defs>
    <clipPath id="clip0_512_2310">
      <rect width="39.5204" height="39.5204" fill="white" transform="translate(0.175903 0.390381)"/>
    </clipPath>
  </defs>
</svg>