<svg xmlns="http://www.w3.org/2000/svg" width="40" height="41" viewBox="0 0 40 41" fill="none">
  <g clip-path="url(#clip0_512_2298)">
    <path d="M24.876 5.65233V35.2926C24.876 38.0261 22.6695 40.2327 19.936 40.2327C17.2025 40.2327 14.9959 38.0261 14.9959 35.2926V5.65233C14.9959 2.91884 17.2025 0.71228 19.936 0.71228C22.6695 0.71228 24.876 2.91884 24.876 5.65233ZM34.7561 10.5924C32.0226 10.5924 29.8161 12.7989 29.8161 15.5324V35.2926C29.8161 38.0261 32.0226 40.2327 34.7561 40.2327C37.4896 40.2327 39.6962 38.0261 39.6962 35.2926V15.5324C39.6962 12.7989 37.4896 10.5924 34.7561 10.5924ZM5.11583 20.4725C2.38234 20.4725 0.175781 22.679 0.175781 25.4125V35.2926C0.175781 38.0261 2.38234 40.2327 5.11583 40.2327C7.84933 40.2327 10.0559 38.0261 10.0559 35.2926V25.4125C10.0559 22.679 7.84933 20.4725 5.11583 20.4725Z" fill="#5A53D0"/>
  </g>
  <defs>
    <clipPath id="clip0_512_2298">
      <rect width="39.5204" height="39.5204" fill="white" transform="translate(0.175781 0.71228)"/>
    </clipPath>
  </defs>
</svg>