<svg xmlns="http://www.w3.org/2000/svg" width="41" height="40" viewBox="0 0 41 40" fill="none">
  <g clip-path="url(#clip0_522_2175)">
    <path d="M28.8333 16.7317C22.4017 16.7317 17.1667 21.965 17.1667 28.3983C17.1667 34.795 22.4017 40 28.8333 40C35.265 40 40.5 34.7667 40.5 28.3333C40.5 21.9367 35.265 16.7317 28.8333 16.7317ZM28.8333 36.6667C24.2383 36.6667 20.5 32.9567 20.5 28.3983C20.5 23.8033 24.2383 20.065 28.8333 20.065C33.4283 20.065 37.1667 23.775 37.1667 28.3333C37.1667 32.9283 33.4283 36.6667 28.8333 36.6667ZM31.6783 28.8217C32.33 29.4733 32.33 30.5267 31.6783 31.1783C31.3533 31.5033 30.9267 31.6667 30.5 31.6667C30.0733 31.6667 29.6467 31.5033 29.3217 31.1783L27.655 29.5117C27.3417 29.1983 27.1667 28.775 27.1667 28.3333V25C27.1667 24.08 27.9117 23.3333 28.8333 23.3333C29.755 23.3333 30.5 24.08 30.5 25V27.6433L31.6783 28.8217ZM40.5 11.6667V15C40.5 15.92 39.755 16.6667 38.8333 16.6667C37.9117 16.6667 37.1667 15.92 37.1667 15V11.6667C37.1667 8.91 34.9233 6.66667 32.1667 6.66667H8.83333C6.07667 6.66667 3.83333 8.91 3.83333 11.6667V13.3333H18.8333C19.7533 13.3333 20.5 14.08 20.5 15C20.5 15.92 19.7533 16.6667 18.8333 16.6667H3.83333V31.6667C3.83333 34.4233 6.07667 36.6667 8.83333 36.6667H15.5C16.42 36.6667 17.1667 37.4133 17.1667 38.3333C17.1667 39.2533 16.42 40 15.5 40H8.83333C4.23833 40 0.5 36.2617 0.5 31.6667V11.6667C0.5 7.07167 4.23833 3.33333 8.83333 3.33333H10.5V1.66667C10.5 0.746667 11.2467 0 12.1667 0C13.0867 0 13.8333 0.746667 13.8333 1.66667V3.33333H27.1667V1.66667C27.1667 0.746667 27.9117 0 28.8333 0C29.755 0 30.5 0.746667 30.5 1.66667V3.33333H32.1667C36.7617 3.33333 40.5 7.07167 40.5 11.6667Z" fill="#3F37C9"/>
  </g>
  <defs>
    <clipPath id="clip0_522_2175">
      <rect width="40" height="40" fill="white" transform="translate(0.5)"/>
    </clipPath>
  </defs>
</svg>