<svg xmlns="http://www.w3.org/2000/svg" width="16" height="16" viewBox="0 0 16 16" fill="none">
  <g clip-path="url(#clip0_515_3391)">
    <path d="M14.2811 4.05097C14.2553 4.03591 9.77147 1.96624 9.77147 1.96624C8.6947 1.37323 7.38916 1.37323 6.31239 1.96624C6.31239 1.96624 1.82915 4.03591 1.8028 4.05097C0.602214 4.70452 0.158758 6.20762 0.812308 7.4082C1.0402 7.82686 1.38414 8.17077 1.8028 8.39869C1.82915 8.41375 3.64907 9.25468 3.64907 9.25468V12.2211C3.65084 13.4989 4.48289 14.6271 5.70306 15.0062C6.46301 15.2257 7.25099 15.3329 8.04195 15.3244C8.83293 15.3329 9.62088 15.2257 10.3808 15.0062C11.601 14.6271 12.4331 13.4988 12.4348 12.2211V9.25465L13.6899 8.67603V13.1279C13.6899 13.6478 14.1114 14.0692 14.6312 14.0692C15.1511 14.0692 15.5726 13.6478 15.5726 13.1279V6.20033C15.5477 5.27497 15.1055 4.45259 14.2811 4.05097ZM10.5521 12.2211C10.5544 12.6695 10.2652 13.0675 9.83798 13.2038C8.6614 13.5195 7.42243 13.5195 6.24585 13.2038C5.81861 13.0675 5.52941 12.6695 5.53171 12.2211V10.1232L6.31239 10.4834C7.38878 11.078 8.69508 11.078 9.77147 10.4834L10.5522 10.1232V12.2211H10.5521ZM13.3667 6.75195C13.3667 6.75195 8.89288 8.81661 8.86776 8.83167C8.3557 9.1229 7.7281 9.1229 7.21604 8.83167C7.19095 8.81661 2.71709 6.75195 2.71709 6.75195C2.42596 6.60342 2.31035 6.24701 2.45887 5.95587C2.51556 5.84474 2.60596 5.75437 2.71709 5.69765C2.71709 5.69765 7.19092 3.63299 7.21604 3.61793C7.7281 3.3267 8.3557 3.3267 8.86776 3.61793C8.89285 3.63299 13.3667 5.69765 13.3667 5.69765C13.6578 5.84618 13.7735 6.20259 13.6249 6.49373C13.5682 6.60489 13.4778 6.69526 13.3667 6.75195Z" fill="#FFC300"/>
  </g>
  <defs>
    <clipPath id="clip0_515_3391">
      <rect width="15.0613" height="15.0613" fill="white" transform="translate(0.51123 0.890503)"/>
    </clipPath>
  </defs>
</svg>