<svg xmlns="http://www.w3.org/2000/svg" width="16" height="16" viewBox="0 0 16 16" fill="none">
  <g clip-path="url(#clip0_515_3396)">
    <path d="M12.721 4.65559H11.9516C12.8384 3.78957 12.9739 2.65055 12.2937 1.74374C11.9516 1.28688 11.4527 0.991926 10.8886 0.911599C10.3225 0.829389 9.76211 0.97561 9.3065 1.317C8.88102 1.6358 8.56724 2.04183 8.33567 2.45476C8.10411 2.0412 7.79033 1.6358 7.36485 1.317C6.90924 0.974982 6.34758 0.829389 5.78341 0.911599C5.21924 0.991926 4.72033 1.2875 4.37831 1.74374C3.70181 2.64553 3.83234 3.77701 4.72159 4.65559H3.93526C2.20509 4.65559 0.797485 6.0632 0.797485 7.79337V12.8138C0.797485 14.544 2.20509 15.9516 3.93526 15.9516H12.721C14.4512 15.9516 15.8588 14.544 15.8588 12.8138V7.79337C15.8588 6.0632 14.4512 4.65559 12.721 4.65559ZM10.0602 2.32109C10.2139 2.20562 10.3972 2.14537 10.5855 2.14537C10.8384 2.14537 11.149 2.30916 11.2902 2.4968C11.6925 3.03273 11.3172 3.5285 11.075 3.76007C10.0953 4.62923 9.05611 4.65559 8.96762 4.65622H8.95946C8.97139 4.59911 8.97515 4.53949 8.97013 4.47862L8.96888 4.46544C9.02473 4.09016 9.25818 2.92229 10.0602 2.32109ZM5.6146 3.7745C5.35479 3.52662 4.98014 3.03273 5.3824 2.49618C5.5236 2.30854 5.72881 2.18679 5.96101 2.15353C6.19508 2.12341 6.42477 2.18052 6.61241 2.32109C7.41505 2.92291 7.6485 4.09205 7.70435 4.46482L7.7031 4.47799C7.69808 4.53887 7.70184 4.59848 7.71377 4.65559H7.70561C7.61712 4.65559 6.57789 4.62861 5.6146 3.7745ZM3.93526 5.91007H7.59014C7.11885 7.13443 5.28952 7.16456 5.18911 7.16518C4.8427 7.16518 4.56219 7.44633 4.56219 7.79274C4.56219 8.13915 4.84333 8.42029 5.18974 8.42029C6.07899 8.42029 7.50981 8.11405 8.32752 7.13004C9.14522 8.11467 10.576 8.42029 11.4653 8.42029C11.8117 8.42029 12.0928 8.13978 12.0928 7.79274C12.0928 7.4457 11.8117 7.16518 11.4653 7.16518C11.3762 7.16518 9.53368 7.14887 9.06364 5.91007H12.7204C13.7584 5.91007 14.6031 6.75476 14.6031 7.79274V11.5581H2.0526V7.79274C2.0526 6.75476 2.89728 5.91007 3.93526 5.91007ZM12.721 14.6958H3.93526C2.89728 14.6958 2.0526 13.8512 2.0526 12.8132H14.6037C14.6037 13.8512 13.759 14.6958 12.721 14.6958Z" fill="#9E00FF"/>
  </g>
  <defs>
    <clipPath id="clip0_515_3396">
      <rect width="15.0613" height="15.0613" fill="white" transform="translate(0.797485 0.890503)"/>
    </clipPath>
  </defs>
</svg>