<svg xmlns="http://www.w3.org/2000/svg" width="188" height="34" viewBox="0 0 188 34" fill="none">
  <path fill-rule="evenodd" clip-rule="evenodd" d="M1.30016 1.3263C0.881914 1.72366 0.636139 2.33905 0.636139 3.13763V31.6471C0.636139 32.4456 0.881914 33.061 1.30016 33.4585L1.40652 33.5513L19.1987 17.5808V17.204L1.40652 1.2334L1.30016 1.3263Z" fill="#00D7FE"/>
  <mask id="mask0_63_3201" style="mask-type:alpha" maskUnits="userSpaceOnUse" x="19" y="11" width="15" height="12">
    <path d="M25.1201 22.8906L19.1912 17.5649V17.1882L25.1229 11.8638L32.2835 15.5148C34.2899 16.5393 34.2899 18.2138 32.2835 19.2369L25.2566 22.8208L25.1201 22.8906Z" fill="white"/>
  </mask>
  <g mask="url(#mask0_63_3201)">
    <path fill-rule="evenodd" clip-rule="evenodd" d="M25.1201 22.8969L19.1912 17.5712V17.1945L25.1229 11.8701L32.2835 15.5212C34.2899 16.5456 34.2899 18.2201 32.2835 19.2432L25.2566 22.8272L25.1201 22.8969Z" fill="url(#paint0_linear_63_3201)"/>
  </g>
  <mask id="mask1_63_3201" style="mask-type:alpha" maskUnits="userSpaceOnUse" x="1" y="17" width="25" height="17">
    <path d="M25.2473 22.8311L19.1821 17.3867L1.28357 33.4529C1.94616 34.0812 3.0385 34.1586 4.2688 33.5314L25.2473 22.8311Z" fill="white"/>
  </mask>
  <g mask="url(#mask1_63_3201)">
    <path fill-rule="evenodd" clip-rule="evenodd" d="M25.2473 22.8311L19.1821 17.3867L1.28357 33.4529C1.94616 34.0812 3.0385 34.1586 4.2688 33.5314L25.2473 22.8311Z" fill="url(#paint1_linear_63_3201)"/>
  </g>
  <mask id="mask2_63_3201" style="mask-type:alpha" maskUnits="userSpaceOnUse" x="1" y="0" width="25" height="18">
    <path d="M25.2473 11.946L4.2688 1.2457C3.0385 0.618695 1.94616 0.696112 1.28357 1.3244L19.1821 17.3904L25.2473 11.946Z" fill="white"/>
  </mask>
  <g mask="url(#mask2_63_3201)">
    <path fill-rule="evenodd" clip-rule="evenodd" d="M25.2473 11.946L4.2688 1.2457C3.0385 0.618695 1.94616 0.696112 1.28357 1.3244L19.1821 17.3904L25.2473 11.946Z" fill="url(#paint2_linear_63_3201)"/>
  </g>
  <path d="M54.7806 26.5039H57.0778L58.8678 21.7604H68.0564L69.6375 26.5039H72.1137L64.8344 5.62069H62.8356L54.7806 26.5039ZM63.7306 8.72334H63.7604L67.4001 19.7318H59.6136L63.7306 8.72334ZM75.2858 11.9453V33.9622H77.3144V25.0719C78.5674 26.2354 80.3276 26.8619 81.9684 26.8619C86.2346 26.8619 89.4565 23.3117 89.4565 19.1649C89.4565 15.0181 86.2644 11.5873 81.9983 11.5873C80.2083 11.5873 78.4183 12.363 77.3144 13.8248V11.9453H75.2858ZM77.3144 16.1816C78.1498 14.4811 80.1486 13.437 81.9386 13.437C85.1307 13.437 87.3682 16.1518 87.3682 19.2843C87.3682 22.3869 85.1009 25.0122 81.9386 25.0122C80.2679 25.0122 78.3884 24.1172 77.3144 22.7151V16.1816ZM93.5528 11.9453V33.9622H95.5814V25.0719C96.8344 26.2354 98.5946 26.8619 100.235 26.8619C104.502 26.8619 107.724 23.3117 107.724 19.1649C107.724 15.0181 104.531 11.5873 100.265 11.5873C98.4753 11.5873 96.6853 12.363 95.5814 13.8248V11.9453H93.5528ZM95.5814 16.1816C96.4168 14.4811 98.4156 13.437 100.206 13.437C103.398 13.437 105.635 16.1518 105.635 19.2843C105.635 22.3869 103.368 25.0122 100.206 25.0122C98.5349 25.0122 96.6554 24.1172 95.5814 22.7151V16.1816ZM130.078 8.87251L131.54 7.26152C129.779 5.91902 127.721 5.2627 125.334 5.2627C122.053 5.2627 119.218 7.02285 119.218 10.8415C119.218 14.2425 122.291 15.3165 125.155 16.3905C127.691 17.3451 130.078 18.2699 130.078 20.7759C130.078 23.5802 127.781 24.8332 125.394 24.8332C123.335 24.8332 121.754 24.5051 119.696 22.4168L118.025 23.9084C120.173 26.0266 122.411 26.8619 125.364 26.8619C128.347 26.8619 132.435 25.1017 132.435 20.4179C132.435 16.9275 129.72 15.6148 127.005 14.6005C124.26 13.5861 121.486 12.8701 121.486 10.5432C121.486 8.51451 123.127 7.29135 125.692 7.29135C127.333 7.29135 129.183 7.97751 130.078 8.87251ZM144.021 13.795V11.9453H139.785V8.30568H137.756V11.9453H135.698V13.795H137.756V22.0588C137.756 25.0719 139.158 26.7724 141.992 26.7724C142.858 26.7724 143.663 26.5039 144.319 26.1459L143.812 24.5349C143.156 24.7736 142.559 24.9227 142.022 24.9227C140.68 24.9227 139.785 24.4454 139.785 21.8201V13.795H144.021ZM153.505 11.5873C149.18 11.5873 146.166 14.9883 146.166 19.2246C146.166 23.4609 149.18 26.8619 153.505 26.8619C157.831 26.8619 160.844 23.4609 160.844 19.2246C160.844 14.9883 157.831 11.5873 153.505 11.5873ZM158.756 19.2246C158.756 22.2676 156.757 25.0122 153.505 25.0122C150.254 25.0122 148.255 22.2676 148.255 19.2246C148.255 16.1816 150.254 13.437 153.505 13.437C156.757 13.437 158.756 16.1816 158.756 19.2246ZM166.959 11.9453H164.931V26.5039H166.959V16.7783C168.003 14.9286 169.107 13.6756 170.778 13.6756C171.345 13.6756 171.703 13.7353 172.15 13.9441L172.419 11.7067C172.001 11.6172 171.583 11.5873 171.196 11.5873C169.167 11.5873 167.765 13.079 166.959 14.69V11.9453ZM187.475 19.7318C187.504 19.4633 187.564 18.8666 187.564 18.3893C187.564 14.7795 184.849 11.5873 181.09 11.5873C177.122 11.5873 173.96 14.8391 173.96 19.1351C173.96 23.4012 176.556 26.8619 181.329 26.8619C183.537 26.8619 186.072 25.7282 187.236 23.5504L185.804 22.6256C184.76 24.5946 183.119 25.1316 181.18 25.1316C178.017 25.1316 176.168 22.5361 175.989 19.7318H187.475ZM185.565 18.0014H176.048C176.466 15.2866 178.286 13.3176 181.09 13.3176C183.566 13.3176 185.446 15.5551 185.565 18.0014Z" fill="#304761"/>
  <defs>
    <linearGradient id="paint0_linear_63_3201" x1="30.9781" y1="17.3833" x2="19.1912" y2="17.3833" gradientUnits="userSpaceOnUse">
      <stop stop-color="#FFBC00"/>
      <stop offset="1" stop-color="#FFDA03"/>
    </linearGradient>
    <linearGradient id="paint1_linear_63_3201" x1="21.9511" y1="22.5096" x2="7.93445" y2="35.3809" gradientUnits="userSpaceOnUse">
      <stop stop-color="#E22652"/>
      <stop offset="1" stop-color="#FF3A44"/>
    </linearGradient>
    <linearGradient id="paint2_linear_63_3201" x1="3.9938" y1="3.25853" x2="13.2748" y2="12.3501" gradientUnits="userSpaceOnUse">
      <stop stop-color="#0ED574"/>
      <stop offset="1" stop-color="#07F076"/>
    </linearGradient>
  </defs>
</svg>