<svg xmlns="http://www.w3.org/2000/svg" width="41" height="40" viewBox="0 0 41 40" fill="none">
  <path d="M14.6661 15.8333C14.6661 16.7516 14.8795 17.6216 15.2595 18.395C14.4428 19.4416 13.9345 20.74 13.8661 22.155C12.2978 20.5083 11.3328 18.2816 11.3328 15.835C11.3328 10.15 16.5361 5.65664 22.4311 6.86664C25.9011 7.57997 28.7128 10.375 29.4528 13.84C29.6761 14.8866 29.7178 15.9116 29.6045 16.8916C29.5078 17.7216 28.7795 18.335 27.9428 18.335H27.8678C26.8811 18.335 26.1878 17.4566 26.2961 16.4766C26.3695 15.8183 26.3311 15.1266 26.1628 14.4216C25.6661 12.3333 23.9628 10.6416 21.8711 10.16C18.0611 9.28497 14.6645 12.1716 14.6645 15.835L14.6661 15.8333ZM8.18281 13.675C8.63947 11.02 9.93781 8.59997 11.9511 6.71164C14.4995 4.32331 17.8361 3.14331 21.3345 3.35997C27.9228 3.78664 33.0745 9.5583 32.9978 16.4683C32.9661 19.3616 30.5428 21.665 27.6511 21.665H23.6411C23.2345 20.2833 21.9711 19.2666 20.4578 19.2666C18.6161 19.2666 17.1245 20.7583 17.1245 22.6C17.1245 24.4416 18.6161 25.9333 20.4578 25.9333C21.3545 25.9333 22.1661 25.575 22.7645 24.9983H27.6511C32.3495 24.9983 36.2645 21.2566 36.3311 16.56C36.4545 7.8583 29.9178 0.574972 21.5495 0.0349715C17.1095 -0.253362 12.8978 1.25497 9.67281 4.28164C7.17447 6.6233 5.51281 9.72331 4.91447 13.0583C4.73281 14.0716 5.53447 15.0016 6.56281 15.0016C7.34947 15.0016 8.05114 14.4533 8.18281 13.6766V13.675ZM20.4995 28.3333C14.3411 28.3333 9.01281 32.1533 7.24114 37.8366C6.96614 38.715 7.45781 39.65 8.33614 39.925C9.21281 40.19 10.1478 39.7066 10.4228 38.83C11.7378 34.6133 15.8795 31.6666 20.4978 31.6666C25.1161 31.6666 29.2595 34.6133 30.5728 38.83C30.7961 39.5433 31.4528 40 32.1645 40C32.3295 40 32.4945 39.975 32.6611 39.925C33.5395 39.65 34.0295 38.715 33.7561 37.8366C31.9845 32.1533 26.6561 28.3333 20.4978 28.3333H20.4995Z" fill="#3F37C9"/>
</svg>