<svg xmlns="http://www.w3.org/2000/svg" width="61" height="61" viewBox="0 0 61 61" fill="none">
  <path d="M30.2014 52.6181C42.5818 52.6181 52.6181 42.5818 52.6181 30.2014C52.6181 17.821 42.5818 7.78467 30.2014 7.78467C17.821 7.78467 7.78467 17.821 7.78467 30.2014C7.78467 42.5818 17.821 52.6181 30.2014 52.6181Z" fill="black" stroke="#ECECEC" stroke-width="4.84686" stroke-linecap="square" stroke-linejoin="round"/>
  <path d="M30.2013 45.1457C31.7488 45.1457 33.0034 43.8912 33.0034 42.3436C33.0034 40.796 31.7488 39.5415 30.2013 39.5415C28.6538 39.5415 27.3992 40.796 27.3992 42.3436C27.3992 43.8912 28.6538 45.1457 30.2013 45.1457Z" fill="black"/>
  <path d="M30.2013 37.9762V32.0691C31.4945 32.0691 32.7585 31.6856 33.8337 30.9673C34.909 30.2488 35.747 29.2276 36.2418 28.033C36.7367 26.8383 36.8662 25.5237 36.6139 24.2553C36.3616 22.9871 35.7389 21.822 34.8245 20.9077C33.9101 19.9933 32.7451 19.3706 31.4769 19.1183C30.2086 18.866 28.894 18.9955 27.6993 19.4904C26.5046 19.9852 25.4834 20.8233 24.765 21.8985C24.0466 22.9737 23.6631 24.2378 23.6631 25.5309" fill="black"/>
  <path d="M30.2013 37.9762V32.0691C31.4945 32.0691 32.7585 31.6856 33.8337 30.9673C34.909 30.2488 35.747 29.2276 36.2418 28.033C36.7367 26.8383 36.8662 25.5237 36.6139 24.2553C36.3616 22.9871 35.7389 21.822 34.8245 20.9077C33.9101 19.9933 32.7451 19.3706 31.4769 19.1183C30.2086 18.866 28.894 18.9955 27.6993 19.4904C26.5046 19.9852 25.4834 20.8233 24.765 21.8985C24.0466 22.9737 23.6631 24.2378 23.6631 25.5309" stroke="white" stroke-width="4.84686" stroke-linecap="round" stroke-linejoin="round"/>
</svg>