<svg xmlns="http://www.w3.org/2000/svg" width="24" height="25" viewBox="0 0 24 25" fill="none">
  <path d="M6.94043 5.40823C6.94016 5.93867 6.7292 6.44727 6.35394 6.82215C5.97868 7.19704 5.46986 7.4075 4.93943 7.40723C4.409 7.40697 3.90039 7.196 3.52551 6.82074C3.15062 6.44548 2.94016 5.93667 2.94043 5.40623C2.9407 4.8758 3.15166 4.3672 3.52692 3.99231C3.90218 3.61743 4.411 3.40697 4.94143 3.40723C5.47186 3.4075 5.98047 3.61847 6.35535 3.99373C6.73024 4.36899 6.9407 4.8778 6.94043 5.40823ZM7.00043 8.88823H3.00043V21.4082H7.00043V8.88823ZM13.3204 8.88823H9.34043V21.4082H13.2804V14.8382C13.2804 11.1782 18.0504 10.8382 18.0504 14.8382V21.4082H22.0004V13.4782C22.0004 7.30823 14.9404 7.53823 13.2804 10.5682L13.3204 8.88823Z" fill="#09081D"/>
</svg>