<svg xmlns="http://www.w3.org/2000/svg" width="24" height="25" viewBox="0 0 24 25" fill="none">
  <path d="M12 9.4082C11.2044 9.4082 10.4413 9.72427 9.87868 10.2869C9.31607 10.8495 9 11.6126 9 12.4082C9 13.2038 9.31607 13.9669 9.87868 14.5295C10.4413 15.0921 11.2044 15.4082 12 15.4082C12.7956 15.4082 13.5587 15.0921 14.1213 14.5295C14.6839 13.9669 15 13.2038 15 12.4082C15 11.6126 14.6839 10.8495 14.1213 10.2869C13.5587 9.72427 12.7956 9.4082 12 9.4082ZM12 7.4082C13.3261 7.4082 14.5979 7.93498 15.5355 8.87267C16.4732 9.81035 17 11.0821 17 12.4082C17 13.7343 16.4732 15.0061 15.5355 15.9437C14.5979 16.8814 13.3261 17.4082 12 17.4082C10.6739 17.4082 9.40215 16.8814 8.46447 15.9437C7.52678 15.0061 7 13.7343 7 12.4082C7 11.0821 7.52678 9.81035 8.46447 8.87267C9.40215 7.93498 10.6739 7.4082 12 7.4082ZM18.5 7.1582C18.5 7.48972 18.3683 7.80766 18.1339 8.04208C17.8995 8.2765 17.5815 8.4082 17.25 8.4082C16.9185 8.4082 16.6005 8.2765 16.3661 8.04208C16.1317 7.80766 16 7.48972 16 7.1582C16 6.82668 16.1317 6.50874 16.3661 6.27432C16.6005 6.0399 16.9185 5.9082 17.25 5.9082C17.5815 5.9082 17.8995 6.0399 18.1339 6.27432C18.3683 6.50874 18.5 6.82668 18.5 7.1582ZM12 4.4082C9.526 4.4082 9.122 4.4152 7.971 4.4662C7.187 4.5032 6.661 4.6082 6.173 4.7982C5.739 4.9662 5.426 5.1672 5.093 5.5012C4.78001 5.8036 4.53935 6.17278 4.389 6.5812C4.199 7.0712 4.094 7.5962 4.058 8.3792C4.006 9.4832 4 9.8692 4 12.4082C4 14.8822 4.007 15.2862 4.058 16.4372C4.095 17.2202 4.2 17.7472 4.389 18.2342C4.559 18.6692 4.759 18.9822 5.091 19.3142C5.428 19.6502 5.741 19.8512 6.171 20.0172C6.665 20.2082 7.191 20.3142 7.971 20.3502C9.075 20.4022 9.461 20.4082 12 20.4082C14.474 20.4082 14.878 20.4012 16.029 20.3502C16.811 20.3132 17.338 20.2082 17.826 20.0192C18.259 19.8502 18.574 19.6492 18.906 19.3172C19.243 18.9802 19.444 18.6672 19.61 18.2372C19.8 17.7442 19.906 17.2172 19.942 16.4372C19.994 15.3332 20 14.9472 20 12.4082C20 9.9342 19.993 9.5302 19.942 8.3792C19.905 7.5972 19.8 7.0692 19.61 6.5812C19.4593 6.1732 19.2191 5.80416 18.907 5.5012C18.6047 5.18805 18.2355 4.94737 17.827 4.7972C17.337 4.6072 16.811 4.5022 16.029 4.4662C14.925 4.4142 14.539 4.4082 12 4.4082ZM12 2.4082C14.717 2.4082 15.056 2.4182 16.122 2.4682C17.187 2.5182 17.912 2.6852 18.55 2.9332C19.21 3.1872 19.766 3.5312 20.322 4.0862C20.8305 4.5861 21.224 5.19079 21.475 5.8582C21.722 6.4952 21.89 7.2212 21.94 8.2862C21.987 9.3522 22 9.6912 22 12.4082C22 15.1252 21.99 15.4642 21.94 16.5302C21.89 17.5952 21.722 18.3202 21.475 18.9582C21.2247 19.626 20.8311 20.2308 20.322 20.7302C19.822 21.2385 19.2173 21.632 18.55 21.8832C17.913 22.1302 17.187 22.2982 16.122 22.3482C15.056 22.3952 14.717 22.4082 12 22.4082C9.283 22.4082 8.944 22.3982 7.878 22.3482C6.813 22.2982 6.088 22.1302 5.45 21.8832C4.78233 21.6327 4.17753 21.2391 3.678 20.7302C3.16941 20.2304 2.77593 19.6257 2.525 18.9582C2.277 18.3212 2.11 17.5952 2.06 16.5302C2.013 15.4642 2 15.1252 2 12.4082C2 9.6912 2.01 9.3522 2.06 8.2862C2.11 7.2202 2.277 6.4962 2.525 5.8582C2.77524 5.19038 3.1688 4.58552 3.678 4.0862C4.17767 3.57743 4.78243 3.18393 5.45 2.9332C6.088 2.6852 6.812 2.5182 7.878 2.4682C8.944 2.4212 9.283 2.4082 12 2.4082Z" fill="#09081D"/>
</svg>