<svg xmlns="http://www.w3.org/2000/svg" width="41" height="40" viewBox="0 0 41 40" fill="none">
  <g clip-path="url(#clip0_522_2181)">
    <path d="M20.5 0C16.5444 0 12.6776 1.17298 9.3886 3.37061C6.09962 5.56824 3.53617 8.69181 2.02242 12.3463C0.508666 16.0009 0.112599 20.0222 0.884303 23.9018C1.65601 27.7814 3.56082 31.3451 6.35787 34.1421C9.15492 36.9392 12.7186 38.844 16.5982 39.6157C20.4778 40.3874 24.4992 39.9913 28.1537 38.4776C31.8082 36.9638 34.9318 34.4004 37.1294 31.1114C39.327 27.8224 40.5 23.9556 40.5 20C40.4943 14.6974 38.3853 9.61368 34.6358 5.8642C30.8863 2.11471 25.8026 0.00573514 20.5 0ZM20.5 35C17.5333 35 14.6332 34.1203 12.1665 32.472C9.69972 30.8238 7.77713 28.4811 6.64182 25.7403C5.5065 22.9994 5.20945 19.9834 5.78823 17.0736C6.36701 14.1639 7.79562 11.4912 9.89341 9.3934C11.9912 7.29561 14.6639 5.867 17.5737 5.28822C20.4834 4.70944 23.4994 5.00649 26.2403 6.14181C28.9812 7.27712 31.3238 9.19971 32.9721 11.6664C34.6203 14.1332 35.5 17.0333 35.5 20C35.4956 23.9769 33.9138 27.7896 31.1017 30.6017C28.2896 33.4138 24.4769 34.9956 20.5 35Z" fill="#3F37C9"/>
    <path d="M20.5078 31.6667C21.8885 31.6667 23.0078 30.5474 23.0078 29.1667C23.0078 27.786 21.8885 26.6667 20.5078 26.6667C19.1271 26.6667 18.0078 27.786 18.0078 29.1667C18.0078 30.5474 19.1271 31.6667 20.5078 31.6667Z" fill="#3F37C9"/>
    <path d="M21.7611 8.31167C20.7416 8.12889 19.6945 8.17191 18.6934 8.43769C17.6924 8.70347 16.7618 9.18554 15.9672 9.84994C15.1727 10.5143 14.5335 11.3449 14.0948 12.2831C13.656 13.2213 13.4283 14.2443 13.4277 15.28C13.4277 15.943 13.6911 16.5789 14.16 17.0478C14.6288 17.5166 15.2647 17.78 15.9277 17.78C16.5908 17.78 17.2267 17.5166 17.6955 17.0478C18.1643 16.5789 18.4277 15.943 18.4277 15.28C18.4292 14.9132 18.5277 14.5534 18.7132 14.2369C18.8986 13.9205 19.1644 13.6587 19.4837 13.4781C19.8029 13.2976 20.1642 13.2046 20.531 13.2087C20.8978 13.2128 21.2569 13.3138 21.572 13.5015C21.8872 13.6892 22.147 13.9569 22.3254 14.2774C22.5037 14.5979 22.5941 14.9599 22.5874 15.3266C22.5807 15.6933 22.4771 16.0517 22.2872 16.3655C22.0973 16.6793 21.8278 16.9373 21.5061 17.1133C20.4748 17.5453 19.5984 18.2792 18.9921 19.2186C18.3859 20.1581 18.0781 21.259 18.1094 22.3767C18.1094 23.0397 18.3728 23.6756 18.8416 24.1444C19.3105 24.6133 19.9464 24.8767 20.6094 24.8767C21.2724 24.8767 21.9083 24.6133 22.3772 24.1444C22.846 23.6756 23.1094 23.0397 23.1094 22.3767C23.1079 22.255 23.1168 22.1335 23.1361 22.0133C23.3695 21.8003 23.6342 21.6243 23.9211 21.4917C25.2014 20.786 26.2318 19.7012 26.871 18.3864C27.5101 17.0716 27.7265 15.5912 27.4906 14.1485C27.2546 12.7057 26.5778 11.3714 25.5532 10.3287C24.5285 9.28601 23.2061 8.58607 21.7677 8.325L21.7611 8.31167Z" fill="#3F37C9"/>
  </g>
  <defs>
    <clipPath id="clip0_522_2181">
      <rect width="40" height="40" fill="white" transform="translate(0.5)"/>
    </clipPath>
  </defs>
</svg>