<svg width="1430" height="184" viewBox="0 0 1430 184" fill="none" xmlns="http://www.w3.org/2000/svg">
<g clip-path="url(#clip0_486_1023)">
<rect x="0.5" y="0.245361" width="1429" height="183" rx="30" fill="#3F37C9"/>
<g clip-path="url(#clip1_486_1023)">
<path d="M715.676 -773.18C476.875 -773.18 260.297 -676.178 103.683 -519.565C-52.9309 -362.951 -149.933 -146.725 -149.933 92.4283C-149.933 331.229 -52.9309 547.807 103.683 704.421C260.297 861.035 476.522 958.037 715.676 958.037C1193.63 958.037 1581.28 570.382 1581.28 92.4283C1581.28 -385.526 1193.63 -773.18 715.676 -773.18ZM715.676 840.576C508.974 840.576 322.025 756.626 186.575 621.529C51.1256 486.079 -32.4723 299.13 -32.4723 92.4283C-32.4723 -114.274 51.4783 -301.222 186.575 -436.672C322.025 -572.122 508.974 -655.72 715.676 -655.72C1128.73 -655.72 1463.82 -320.623 1463.82 92.4283C1463.82 505.479 1128.73 840.576 715.676 840.576Z" fill="url(#paint0_radial_486_1023)"/>
<path d="M715.676 -69.4773C671.232 -69.4773 630.667 -51.4879 601.39 -21.8582C572.113 7.41868 554.124 47.6303 554.124 92.4275C554.124 137.225 572.113 177.436 601.39 206.713C630.667 235.99 671.232 253.98 715.676 253.98C760.473 253.98 800.685 235.99 829.962 206.713C859.239 177.436 877.228 136.872 877.228 92.4275C877.228 47.6303 859.239 7.41868 829.962 -21.8582C800.685 -51.4879 760.12 -69.4773 715.676 -69.4773ZM747.069 123.821C738.957 131.934 728.022 136.872 715.676 136.872C703.33 136.872 692.396 131.934 684.283 123.821C676.17 115.708 671.232 104.773 671.232 92.4275C671.232 80.0818 676.17 69.147 684.283 61.0342V60.6815C692.043 52.9213 703.33 47.983 715.676 47.983C728.022 47.983 738.957 52.9213 747.069 61.0342C755.182 69.147 760.12 80.0818 760.12 92.4275C760.12 104.42 755.182 115.708 747.069 123.821Z" fill="url(#paint1_radial_486_1023)"/>
<path d="M1493.45 -685.349C1294.16 -884.644 1019.38 -1007.75 715.677 -1007.75C411.973 -1007.75 136.841 -884.644 -62.1013 -685.349C-261.396 -486.408 -384.5 -211.275 -384.5 92.4286C-384.5 396.132 -261.396 671.265 -62.1013 870.207C136.841 1069.15 411.973 1192.61 715.677 1192.61C1019.38 1192.61 1294.51 1069.5 1493.45 870.207C1692.4 671.265 1815.85 396.132 1815.85 92.4286C1815.5 -211.275 1692.4 -486.408 1493.45 -685.349ZM1410.56 787.314C1232.78 965.092 986.929 1075.14 715.677 1075.14C444.424 1075.14 198.569 965.092 20.7911 787.314C-156.987 609.536 -267.04 363.681 -267.04 92.4286C-267.04 -178.824 -156.987 -424.679 20.7911 -602.457C198.569 -780.235 444.424 -890.288 715.677 -890.288C986.929 -890.288 1232.78 -780.235 1410.56 -602.457C1588.34 -424.679 1698.39 -178.824 1698.39 92.4286C1698.39 363.681 1588.34 609.183 1410.56 787.314Z" fill="url(#paint2_radial_486_1023)"/>
<path d="M1161.53 -353.773C1047.25 -468.059 889.573 -538.605 715.323 -538.605V-538.253C541.072 -538.253 383.4 -467.706 269.115 -353.773C154.829 -239.487 84.2822 -81.8153 84.2822 92.4351C84.2822 266.686 154.829 424.358 269.115 538.643C383.4 652.929 541.072 723.476 715.323 723.476C889.573 723.476 1047.25 652.929 1161.53 538.643C1275.82 424.358 1346.36 266.686 1346.36 92.4351C1346.36 -81.8153 1275.82 -239.487 1161.53 -353.773ZM1078.64 455.398C985.87 548.52 857.122 606.016 715.323 606.016C573.524 606.016 445.129 548.52 352.007 455.398C259.238 362.629 201.743 233.881 201.743 92.0825C201.743 -49.7165 259.238 -178.112 352.007 -271.233C445.129 -364.355 573.524 -421.851 715.323 -421.851V-421.498C857.122 -421.498 985.517 -364.002 1078.64 -271.233C1171.41 -178.112 1229.26 -49.7165 1229.26 92.0825C1229.26 233.881 1171.76 362.629 1078.64 455.398Z" fill="url(#paint3_radial_486_1023)"/>
<path d="M995.747 -187.996C924.142 -259.601 825.024 -304.045 715.677 -304.045C606.329 -304.045 507.211 -259.601 435.606 -187.996C364.001 -116.391 319.557 -17.2727 319.557 92.0747C319.557 201.422 364.001 300.54 435.606 372.145C507.211 443.75 606.329 488.195 715.677 488.195C825.024 488.195 924.142 443.75 995.747 372.145C1067.35 300.54 1111.8 201.422 1111.8 92.0747C1111.8 -17.2727 1067.7 -116.391 995.747 -187.996ZM912.855 289.606C862.414 340.046 792.573 371.44 715.677 371.44C638.781 371.44 568.939 340.046 518.498 289.606C468.058 239.165 436.664 169.323 436.664 92.4275C436.664 15.5316 468.058 -54.3097 518.498 -104.751C568.939 -155.192 638.781 -186.585 715.677 -186.585C792.573 -186.585 862.414 -155.192 912.855 -104.751C963.296 -54.3097 994.689 15.5316 994.689 92.4275C994.689 169.323 963.296 239.165 912.855 289.606Z" fill="url(#paint4_radial_486_1023)"/>
</g>
</g>
<defs>
<radialGradient id="paint0_radial_486_1023" cx="0" cy="0" r="1" gradientUnits="userSpaceOnUse" gradientTransform="translate(715.676 92.4282) rotate(87.1492) scale(836 855.822)">
<stop offset="0.526042" stop-color="#4642CF"/>
<stop offset="0.760417" stop-color="#644AEE"/>
<stop offset="1" stop-color="#003188"/>
</radialGradient>
<radialGradient id="paint1_radial_486_1023" cx="0" cy="0" r="1" gradientUnits="userSpaceOnUse" gradientTransform="translate(715.676 92.2511) rotate(87.1523) scale(156.196 159.726)">
<stop offset="0.526042" stop-color="#4642CF"/>
<stop offset="0.760417" stop-color="#644AEE"/>
<stop offset="1" stop-color="#003188"/>
</radialGradient>
<radialGradient id="paint2_radial_486_1023" cx="0" cy="0" r="1" gradientUnits="userSpaceOnUse" gradientTransform="translate(715.677 92.4286) rotate(87.1492) scale(1062.54 1087.74)">
<stop offset="0.526042" stop-color="#4642CF"/>
<stop offset="0.760417" stop-color="#644AEE"/>
<stop offset="1" stop-color="#003188"/>
</radialGradient>
<radialGradient id="paint3_radial_486_1023" cx="0" cy="0" r="1" gradientUnits="userSpaceOnUse" gradientTransform="translate(715.323 92.4352) rotate(87.1492) scale(609.455 623.906)">
<stop offset="0.526042" stop-color="#4642CF"/>
<stop offset="0.760417" stop-color="#644AEE"/>
<stop offset="1" stop-color="#003188"/>
</radialGradient>
<radialGradient id="paint4_radial_486_1023" cx="0" cy="0" r="1" gradientUnits="userSpaceOnUse" gradientTransform="translate(715.677 92.0748) rotate(87.1492) scale(382.57 391.641)">
<stop offset="0.526042" stop-color="#4642CF"/>
<stop offset="0.760417" stop-color="#644AEE"/>
<stop offset="1" stop-color="#003188"/>
</radialGradient>
<clipPath id="clip0_486_1023">
<rect x="0.5" y="0.245361" width="1429" height="183" rx="30" fill="white"/>
</clipPath>
<clipPath id="clip1_486_1023">
<rect width="2200" height="2200" fill="white" transform="translate(-384.5 -1007.75)"/>
</clipPath>
</defs>
</svg>
