<svg xmlns="http://www.w3.org/2000/svg" width="40" height="41" viewBox="0 0 40 41" fill="none">
  <g clip-path="url(#clip0_286_12430)">
    <path d="M28.8666 10.8922C26.0383 8.3639 22.235 7.16556 18.4366 7.59056C12.4283 8.26723 7.5133 13.1106 6.7483 19.1039C6.12663 23.9906 8.69664 28.7272 11.5216 31.2572C12.6716 32.2856 13.3316 33.8822 13.3316 35.6406V40.8356H26.665V35.3189C26.665 33.5906 27.3433 32.0339 28.525 31.0506C31.5733 28.5139 33.3216 24.7922 33.3216 20.8422C33.3216 17.0489 31.6966 13.4206 28.865 10.8906L28.8666 10.8922ZM25.3266 27.2089C24.15 28.1889 23.23 29.4322 22.605 30.8356H22.5V23.4739C23.9866 22.6072 25 21.0122 25 19.1689H15C15 21.0106 16.0133 22.6056 17.5 23.4739V30.8356H17.2766C16.69 29.5756 15.88 28.4439 14.8566 27.5306C13.0683 25.9289 11.3183 22.8056 11.71 19.7356C12.185 16.0006 15.25 12.9806 18.9966 12.5572C21.4266 12.2839 23.74 13.0172 25.5366 14.6206C27.3066 16.2022 28.3233 18.4706 28.3233 20.8422C28.3233 23.3039 27.2316 25.6222 25.3266 27.2072V27.2089ZM30.6933 8.50223L26.4233 5.90056L29.4883 0.868896L33.7583 3.47056L30.6916 8.50556L30.6933 8.50223ZM39.9233 12.3789L34.7466 14.7156L32.69 10.1589L37.8666 7.82223L39.9233 12.3789ZM9.16663 8.5039L6.09997 3.4689L10.3716 0.868896L13.4383 5.9039L9.1683 8.50556L9.16663 8.5039ZM7.30497 10.3672L5.1433 14.8756L-0.116699 12.3556L2.04497 7.84723L7.30497 10.3672Z" fill="#3F37C9"/>
  </g>
  <defs>
    <clipPath id="clip0_286_12430">
      <rect width="40" height="40" fill="white" transform="translate(0 0.835449)"/>
    </clipPath>
  </defs>
</svg>