<svg xmlns="http://www.w3.org/2000/svg" width="108" height="26" viewBox="0 0 108 26" fill="none">
  <g clip-path="url(#clip0_268_10234)">
    <path d="M20.9378 14.493C21.1143 14.493 21.2937 14.5047 21.4732 14.5312C22.7763 14.7224 23.8206 15.7726 24.0118 17.0875C24.1294 17.8846 23.9382 18.6818 23.4735 19.326C23.297 19.5702 23.041 19.8026 22.7145 20.0173L22.691 20.032C22.6792 20.0408 22.6586 20.0526 22.6351 20.0702C22.4145 20.2085 22.1939 20.335 21.9703 20.4497C20.6848 21.1175 19.2405 21.4705 17.7873 21.4705C15.4693 21.4705 13.2808 20.6115 11.6217 19.0525C11.4893 18.9289 11.3629 18.7995 11.2393 18.67C11.86 18.8848 12.5248 19.0024 13.2161 19.0024C15.1458 19.0024 16.9696 18.067 18.0962 16.5021C18.2462 16.2932 18.3609 16.0814 18.4639 15.8902C18.5168 15.7961 18.5669 15.699 18.6227 15.6049C19.0405 14.9195 19.9259 14.493 20.9378 14.493ZM8.09473 13.2487C8.23592 18.2994 12.5218 22.35 17.7903 22.35C19.4523 22.35 21.0143 21.9411 22.3792 21.2322C22.6439 21.0998 22.9028 20.9498 23.1499 20.7909C23.1587 20.7821 23.1705 20.7733 23.1822 20.7674L23.1969 20.7586C23.5764 20.5115 23.9265 20.2114 24.1912 19.8437C24.7619 19.0495 25.0443 18.0405 24.8854 16.961C24.6383 15.2754 23.2852 13.9076 21.5997 13.6605C21.379 13.6281 21.1584 13.6134 20.9378 13.6134C19.667 13.6134 18.4727 14.1517 17.8697 15.1519C17.702 15.4313 17.5696 15.7284 17.3843 15.9873C16.4518 17.2816 14.934 18.12 13.219 18.12C10.4745 18.12 8.23298 15.9608 8.09473 13.2487Z" fill="#3F37C9"/>
    <path d="M24.2177 19.7968C21.9439 23.3679 17.9198 25.7359 13.372 25.7359C6.2857 25.7359 0.549561 19.9998 0.549561 12.9164C0.549561 5.83298 6.2857 0.0880127 13.3691 0.0880127C17.8256 0.0880127 21.7556 2.36776 24.053 5.81827C23.8089 5.52411 23.5088 5.27113 23.1882 5.06227C23.1852 5.06227 23.1852 5.05933 23.1852 5.05933C23.1735 5.05051 23.1617 5.04462 23.1529 5.0358C22.9028 4.87989 22.6469 4.72987 22.3792 4.59162C21.0143 3.88269 19.4523 3.47086 17.7903 3.47086C12.519 3.47086 8.22716 7.5244 8.08596 12.5781C8.08891 12.531 8.08891 12.481 8.09773 12.4339C8.08891 12.5075 8.08891 12.584 8.08596 12.6546C8.07714 12.7399 8.07714 12.8281 8.07714 12.9164C8.07714 13.0046 8.07714 13.0899 8.08596 13.1752C8.22716 18.1907 12.4837 22.2148 17.7139 22.2148C20.2054 22.2119 22.5057 21.2941 24.2177 19.7968Z" fill="#3F37C9"/>
    <path d="M24.8619 8.28309C24.9296 10.3658 23.4412 12.1278 21.3644 12.319C19.9583 12.4484 18.5051 11.9307 17.8286 10.807C17.6609 10.5305 17.5285 10.2334 17.3432 9.97452C16.4136 8.68315 14.9017 7.84773 13.1926 7.84773C10.4569 7.84773 8.22126 9.99805 8.08301 12.7014C8.22421 7.66536 12.4954 3.62653 17.7462 3.62653C19.4023 3.62653 20.9584 4.03541 22.3204 4.7414C22.5822 4.87377 22.8411 5.02379 23.0882 5.18264C23.097 5.19146 23.1087 5.19735 23.1205 5.20617C23.1235 5.20911 23.1293 5.21205 23.1323 5.21499C23.547 5.48268 23.9206 5.81802 24.1942 6.22691C24.5972 6.82111 24.8384 7.5271 24.8619 8.28309Z" fill="#FFB81D"/>
    <path d="M43.5235 8.48625C43.297 8.78336 43.0087 8.93044 42.6557 8.93044C42.4145 8.93044 42.1762 8.86572 41.935 8.73923C41.2438 8.41565 40.4936 8.25092 39.6906 8.25092C38.7022 8.25092 37.8403 8.45978 37.1078 8.87455C36.3724 9.29225 35.8077 9.87763 35.4135 10.6336C35.0193 11.3896 34.8193 12.2545 34.8193 13.2281C34.8193 14.8931 35.2664 16.158 36.1636 17.0199C37.0608 17.8818 38.2345 18.3112 39.6906 18.3112C40.5525 18.3112 41.2996 18.1494 41.935 17.8229C42.188 17.7111 42.4145 17.6523 42.6116 17.6523C42.9793 17.6523 43.2882 17.8082 43.5441 18.1171C43.7559 18.3848 43.8618 18.676 43.8618 18.9849C43.8618 19.2114 43.8059 19.4143 43.6912 19.5997C43.5794 19.782 43.4147 19.9232 43.2029 20.0232C42.1027 20.5733 40.929 20.8498 39.6876 20.8498C38.3021 20.8498 37.0314 20.5557 35.8753 19.9703C34.7163 19.3849 33.7927 18.5201 33.1014 17.3758C32.4101 16.2315 32.063 14.849 32.063 13.2252C32.063 11.7838 32.3925 10.4924 33.0484 9.34814C33.7044 8.20386 34.6134 7.31255 35.7694 6.66834C36.9284 6.02707 38.2345 5.70349 39.6876 5.70349C41.0849 5.70349 42.3674 6.04472 43.5382 6.72423C43.9471 7.34197 43.9412 7.92735 43.5235 8.48625Z" fill="black"/>
    <path d="M55.9547 9.45972C56.1959 9.70093 56.3136 10.0098 56.3136 10.3922V19.3523C56.3136 19.72 56.193 20.026 55.9547 20.2731C55.7135 20.5202 55.4105 20.6437 55.0428 20.6437C54.6751 20.6437 54.375 20.5231 54.1427 20.2848C53.9103 20.0436 53.7867 19.7406 53.772 19.3729C53.2631 19.9613 52.5012 20.426 51.4834 20.7673C50.0891 20.9967 48.8625 20.7761 47.8005 20.1025C47.0093 19.6024 46.3856 18.9052 45.9267 18.0169C45.4678 17.1285 45.2384 16.1166 45.2384 14.987C45.2384 13.8574 45.4649 12.8455 45.915 11.9483C46.368 11.0511 46.9857 10.354 47.7682 9.85095C48.5507 9.35088 49.4155 9.0979 50.3627 9.0979C51.0393 9.0979 51.6746 9.22145 52.2689 9.46854C52.8631 9.71564 53.3631 10.0304 53.772 10.4099V10.3893C53.772 10.0216 53.8926 9.71564 54.1309 9.46854C54.3721 9.22145 54.6751 9.0979 55.0428 9.0979C55.4105 9.0979 55.7164 9.21851 55.9547 9.45972ZM53.0131 17.5197C53.5926 16.849 53.8809 16.0048 53.8809 14.9899C53.8809 13.9721 53.5926 13.125 53.0131 12.4484C52.4336 11.7718 51.6864 11.4306 50.7686 11.4306C49.8656 11.4306 49.1243 11.7689 48.5448 12.4484C47.9653 13.125 47.677 13.9721 47.677 14.9899C47.677 16.0077 47.9623 16.849 48.5359 17.5197C49.1096 18.1904 49.8538 18.5258 50.7716 18.5258C51.6835 18.5258 52.4336 18.1904 53.0131 17.5197Z" fill="black"/>
    <path d="M66.0267 9.67143C66.315 9.91264 66.4621 10.195 66.4621 10.5186C66.4621 10.9569 66.3474 11.2834 66.1238 11.5041C65.8973 11.7217 65.6296 11.8335 65.3178 11.8335C65.106 11.8335 64.8648 11.7835 64.5971 11.6864C64.5559 11.6717 64.4588 11.6452 64.3118 11.6011C64.1647 11.557 64.0058 11.5364 63.8352 11.5364C63.4675 11.5364 63.1145 11.6482 62.7762 11.8747C62.438 12.1012 62.1585 12.4424 61.9408 12.9013C61.7202 13.3602 61.6114 13.9073 61.6114 14.5427V19.5641C61.6114 19.9318 61.4908 20.2377 61.2525 20.4848C61.0113 20.7319 60.7083 20.8554 60.3406 20.8554C59.9729 20.8554 59.6699 20.7319 59.4287 20.4848C59.1875 20.2377 59.0698 19.9318 59.0698 19.5641V10.8157C59.0698 10.448 59.1904 10.1421 59.4287 9.89499C59.6699 9.6479 59.9729 9.52435 60.3406 9.52435C60.7083 9.52435 61.0113 9.6479 61.2525 9.89499C61.4937 10.1421 61.6114 10.448 61.6114 10.8157V11.0922C61.935 10.5127 62.4027 10.0715 63.0086 9.7685C63.6146 9.46552 64.2647 9.31255 64.956 9.31255C65.3825 9.30961 65.7385 9.43022 66.0267 9.67143Z" fill="black"/>
    <path d="M77.8785 5.32981C78.1197 5.57103 78.2374 5.8799 78.2374 6.2623V19.3525C78.2374 19.7202 78.1168 20.0261 77.8785 20.2732C77.6373 20.5203 77.3343 20.6438 76.9666 20.6438C76.5989 20.6438 76.2989 20.5232 76.0665 20.285C75.8341 20.0437 75.7106 19.7408 75.6958 19.3731C75.1869 19.9614 74.4251 20.4262 73.4073 20.7674C72.0129 20.9968 70.7863 20.7762 69.7244 20.1026C68.9331 19.6025 68.3095 18.9053 67.8506 18.017C67.3917 17.1286 67.1622 16.1167 67.1622 14.9871C67.1622 13.8575 67.3887 12.8456 67.8388 11.9484C68.2918 11.0512 68.9095 10.3541 69.692 9.85107C70.4745 9.35099 71.3393 9.09802 72.2865 9.09802C72.9631 9.09802 73.5985 9.22156 74.1927 9.46866C74.7869 9.71575 75.287 10.0305 75.6958 10.41V6.2623C75.6958 5.8946 75.8164 5.58868 76.0547 5.34158C76.2959 5.09449 76.5989 4.97094 76.9666 4.97094C77.3343 4.968 77.6373 5.0886 77.8785 5.32981ZM74.934 17.5198C75.5135 16.8492 75.8017 16.0049 75.8017 14.9901C75.8017 13.9723 75.5135 13.1251 74.934 12.4485C74.3545 11.7719 73.6073 11.4307 72.6895 11.4307C71.7864 11.4307 71.0452 11.769 70.4657 12.4485C69.8862 13.1251 69.5979 13.9723 69.5979 14.9901C69.5979 16.0079 69.8832 16.8492 70.4568 17.5198C71.0304 18.1905 71.7747 18.5259 72.6925 18.5259C73.6073 18.5259 74.3545 18.1905 74.934 17.5198Z" fill="black"/>
    <path d="M81.076 7.91247C80.8789 7.75657 80.7789 7.483 80.7789 7.08588V6.68288C80.7789 6.28871 80.8848 6.01219 81.0966 5.85629C81.3084 5.70038 81.6467 5.6239 82.1144 5.6239C82.6086 5.6239 82.9557 5.70038 83.1528 5.85629C83.3499 6.01219 83.4499 6.28871 83.4499 6.68288V7.08588C83.4499 7.49476 83.347 7.77422 83.144 7.9213C82.941 8.06838 82.591 8.14486 82.0968 8.14486C81.6144 8.14486 81.2761 8.06838 81.076 7.91247ZM83.0263 20.4849C82.7851 20.732 82.4821 20.8556 82.1144 20.8556C81.7467 20.8556 81.4437 20.732 81.2025 20.4849C80.9613 20.2378 80.8436 19.9319 80.8436 19.5642V10.8158C80.8436 10.4481 80.9643 10.1422 81.2025 9.89512C81.4437 9.64802 81.7467 9.52448 82.1144 9.52448C82.4821 9.52448 82.7851 9.64802 83.0263 9.89512C83.2675 10.1422 83.3852 10.4481 83.3852 10.8158V19.5642C83.3852 19.9289 83.2646 20.2378 83.0263 20.4849Z" fill="black"/>
    <path d="M94.8427 7.91247C95.0398 7.75657 95.1398 7.483 95.1398 7.08588V6.68288C95.1398 6.28871 95.034 6.01219 94.8222 5.85629C94.6104 5.70038 94.2721 5.6239 93.8044 5.6239C93.3102 5.6239 92.9631 5.70038 92.766 5.85629C92.5689 6.01219 92.4689 6.28871 92.4689 6.68288V7.08588C92.4689 7.49476 92.5718 7.77422 92.7748 7.9213C92.9807 8.06838 93.3278 8.14486 93.822 8.14486C94.3044 8.14486 94.6457 8.06838 94.8427 7.91247ZM92.8925 20.4849C93.1337 20.732 93.4367 20.8556 93.8044 20.8556C94.1721 20.8556 94.475 20.732 94.7163 20.4849C94.9575 20.2378 95.0751 19.9319 95.0751 19.5642V10.8158C95.0751 10.4481 94.9545 10.1422 94.7163 9.89512C94.475 9.64802 94.1721 9.52448 93.8044 9.52448C93.4367 9.52448 93.1337 9.64802 92.8925 9.89512C92.6513 10.1422 92.5336 10.4481 92.5336 10.8158V19.5642C92.5336 19.9289 92.6542 20.2378 92.8925 20.4849Z" fill="black"/>
    <path d="M106.712 10.5921C107.262 11.4452 107.539 12.6277 107.539 14.1397V19.5611C107.539 19.9288 107.418 20.2347 107.18 20.4818C106.939 20.7289 106.636 20.8524 106.268 20.8524C105.9 20.8524 105.597 20.7289 105.356 20.4818C105.115 20.2347 104.997 19.9288 104.997 19.5611V14.1397C104.997 13.3631 104.835 12.7513 104.509 12.3071C104.182 11.8629 103.626 11.6393 102.835 11.6393C102.014 11.6393 101.373 11.8747 100.908 12.3483C100.441 12.8219 100.208 13.419 100.208 14.1368V19.5581C100.208 19.9258 100.088 20.2318 99.8494 20.4789C99.6082 20.726 99.3052 20.8495 98.9375 20.8495C98.5698 20.8495 98.2668 20.726 98.0256 20.4789C97.7844 20.2318 97.6667 19.9258 97.6667 19.5581V10.8157C97.6667 10.448 97.7874 10.142 98.0256 9.89495C98.2668 9.64786 98.5698 9.52431 98.9375 9.52431C99.3052 9.52431 99.6082 9.64786 99.8494 9.89495C100.091 10.142 100.208 10.448 100.208 10.8157V11.1746C100.591 10.6657 101.088 10.2274 101.703 9.8626C102.317 9.49489 102.991 9.31252 103.726 9.31252C105.165 9.30957 106.162 9.73905 106.712 10.5921Z" fill="black"/>
    <path d="M86.6504 19.5851V10.8926H85.8914C85.1119 10.8926 84.7324 10.4926 84.7324 9.866C84.7324 9.23944 85.1119 8.86291 85.8914 8.86291H86.6504V6.3243C86.6504 5.5889 87.0975 5.05353 87.7858 5.05353C88.4977 5.05353 88.9448 5.60949 88.9448 6.3243V8.86585H89.9714C90.6186 8.86585 91.0628 9.22179 91.0628 9.86894C91.0628 10.5367 90.6156 10.8956 89.9714 10.8956H88.9448V19.588C88.9448 20.3234 88.4977 20.8588 87.7858 20.8588C87.0945 20.8559 86.6504 20.3205 86.6504 19.5851Z" fill="black"/>
  </g>
  <defs>
    <clipPath id="clip0_268_10234">
      <rect width="106.989" height="25.6479" fill="white" transform="translate(0.549561 0.0880127)"/>
    </clipPath>
  </defs>
</svg>