<svg width="580" height="579" viewBox="0 0 580 579" fill="none" xmlns="http://www.w3.org/2000/svg">
<g opacity="0.5">
<mask id="mask0_63_2692" style="mask-type:alpha" maskUnits="userSpaceOnUse" x="0" y="0" width="580" height="579">
<ellipse cx="290" cy="289.1" rx="289.1" ry="289.101" transform="rotate(-90 290 289.1)" fill="url(#paint0_radial_63_2692)"/>
</mask>
<g mask="url(#mask0_63_2692)">
<path d="M-16.3348 916.612L596.335 916.612M596.335 899.701L-16.3348 899.701M-16.3348 882.79L596.335 882.79M596.335 865.88L-16.3348 865.88M-16.3348 848.969L596.335 848.969M596.335 832.059L-16.3348 832.059M-16.3348 815.148L596.335 815.148M596.335 798.237L-16.3348 798.237M-16.3348 781.327L596.335 781.327M596.335 764.416L-16.3348 764.416M-16.3348 747.505L596.335 747.505M596.335 730.595L-16.3348 730.595M-16.3348 713.684L596.335 713.684M596.335 696.774L-16.3348 696.774M-16.3348 679.863L596.335 679.863M596.335 662.952L-16.3349 662.952M-16.3349 646.042L596.335 646.042M596.335 629.131L-16.3349 629.131M-16.3349 612.221L596.335 612.22M596.335 595.31L-16.3349 595.31M-16.3349 578.399L596.335 578.399M596.335 561.489L-16.3349 561.489M-16.3349 544.578L596.335 544.578M596.335 527.667L-16.3349 527.667M-16.3349 510.757L596.335 510.757M596.335 493.846L-16.3349 493.846M-16.3349 476.936L596.335 476.936M596.335 460.025L-16.3349 460.025M-16.3349 443.114L596.335 443.114M596.335 426.204L-16.3349 426.204M-16.3349 409.293L596.335 409.293M596.335 392.382L-16.3349 392.382M-16.3349 375.472L596.335 375.472M596.335 358.561L-16.3349 358.561M-16.3349 341.651L596.335 341.651M596.335 324.74L-16.3349 324.74M-16.3349 307.829L596.335 307.829M596.335 290.919L-16.3349 290.919M-16.3349 274.008L596.335 274.008M596.335 257.097L-16.3349 257.097M-16.3349 240.187L596.335 240.187M596.335 223.276L-16.3349 223.276M-16.3349 206.366L596.335 206.366M596.335 189.455L-16.3349 189.455M-16.3349 172.544L596.335 172.544M596.335 155.634L-16.3349 155.634M-16.3349 138.723L596.335 138.723M596.335 121.812L-16.3349 121.812M-16.3349 104.902L596.335 104.902M596.335 87.9912L-16.3349 87.9913M-16.3349 71.0806L596.335 71.0806M596.335 54.17L-16.3349 54.17M-16.3349 37.2594L596.335 37.2594M596.335 20.3487L-16.3349 20.3488M-16.3349 3.43811L596.335 3.43808M596.335 -13.4725L-16.3349 -13.4725M-16.3349 -30.3831L596.335 -30.3831M596.335 -47.2937L-16.3349 -47.2937M-16.3349 -64.2043L596.335 -64.2044M596.335 -81.115L-16.3349 -81.115M-16.3349 -98.0256L596.335 -98.0256M596.335 -114.936L-16.3349 -114.936M-16.3349 -131.847L596.335 -131.847M596.335 -148.757L-16.3349 -148.757M588.478 924.473L588.478 -156.617M571.422 -156.617L571.422 924.473M554.366 924.473L554.366 -156.617M537.31 -156.617L537.31 924.473M520.254 924.473L520.254 -156.617M503.198 -156.617L503.198 924.473M486.142 924.473L486.142 -156.617M469.085 -156.617L469.086 924.473M452.03 924.473L452.029 -156.617M434.973 -156.617L434.973 924.473M417.917 924.473L417.917 -156.617M400.861 -156.617L400.861 924.473M383.805 924.473L383.805 -156.617M366.749 -156.617L366.749 924.473M349.693 924.473L349.693 -156.617M332.637 -156.617L332.637 924.473M315.581 924.473L315.581 -156.617M298.525 -156.617L298.525 924.473M281.469 924.473L281.469 -156.617M264.413 -156.617L264.413 924.473M247.357 924.473L247.357 -156.617M230.301 -156.617L230.301 924.473M213.245 924.473L213.245 -156.617M196.189 -156.617L196.189 924.473M179.133 924.473L179.133 -156.617M162.077 -156.617L162.077 924.473M145.021 924.473L145.021 -156.617M127.965 -156.617L127.965 924.473M110.909 924.473L110.909 -156.617M93.8528 -156.617L93.8528 924.473M76.7968 924.473L76.7967 -156.617M59.7407 -156.617L59.7408 924.473M42.6847 924.473L42.6847 -156.617M25.6286 -156.617L25.6287 924.473M8.57265 924.473L8.57261 -156.617M-8.48343 -156.617L-8.48338 924.473M-16.3348 924.895L-16.3349 -157.041L595.653 -157.041L595.653 924.895L-16.3348 924.895Z" stroke="#BAB8EB" stroke-miterlimit="10"/>
</g>
</g>
<g opacity="0.5" filter="url(#filter0_f_63_2692)">
<rect x="224" y="223.101" width="132" height="132" rx="33.5593" fill="#1204FF"/>
<path d="M310.45 293.045C310.89 293.045 311.338 293.074 311.786 293.14C315.036 293.617 317.641 296.237 318.118 299.517C318.411 301.505 317.935 303.494 316.775 305.1C316.335 305.709 315.697 306.289 314.882 306.825L314.823 306.861C314.794 306.883 314.743 306.913 314.684 306.957C314.134 307.302 313.583 307.617 313.026 307.903C309.819 309.569 306.216 310.45 302.592 310.45C296.81 310.45 291.351 308.307 287.212 304.418C286.882 304.11 286.566 303.787 286.258 303.464C287.806 304 289.465 304.293 291.189 304.293C296.003 304.293 300.552 301.96 303.362 298.056C303.736 297.535 304.023 297.007 304.279 296.53C304.411 296.295 304.536 296.053 304.676 295.818C305.717 294.109 307.926 293.045 310.45 293.045ZM278.414 289.941C278.767 302.54 289.457 312.643 302.599 312.643C306.745 312.643 310.641 311.624 314.046 309.855C314.706 309.525 315.352 309.151 315.968 308.755C315.99 308.733 316.019 308.711 316.049 308.696L316.085 308.674C317.032 308.057 317.905 307.309 318.566 306.392C319.989 304.411 320.693 301.894 320.297 299.201C319.681 294.997 316.306 291.585 312.101 290.968C311.551 290.888 311.001 290.851 310.45 290.851C307.28 290.851 304.301 292.194 302.797 294.688C302.379 295.386 302.049 296.127 301.586 296.772C299.26 300.001 295.474 302.092 291.196 302.092C284.351 302.092 278.759 296.706 278.414 289.941Z" fill="white"/>
<path d="M318.632 306.275C312.96 315.183 302.922 321.089 291.578 321.089C273.902 321.089 259.594 306.781 259.594 289.112C259.594 271.443 273.902 257.113 291.571 257.113C302.687 257.113 312.49 262.8 318.221 271.407C317.612 270.673 316.863 270.042 316.064 269.521C316.056 269.521 316.056 269.514 316.056 269.514C316.027 269.492 315.997 269.477 315.975 269.455C315.352 269.066 314.713 268.692 314.046 268.347C310.641 266.578 306.745 265.551 302.599 265.551C289.45 265.551 278.745 275.662 278.392 288.268C278.4 288.151 278.4 288.026 278.422 287.909C278.4 288.092 278.4 288.283 278.392 288.459C278.37 288.672 278.37 288.892 278.37 289.112C278.37 289.332 278.37 289.545 278.392 289.758C278.745 302.268 289.362 312.306 302.408 312.306C308.623 312.299 314.361 310.01 318.632 306.275Z" fill="white"/>
<path d="M320.238 277.555C320.407 282.75 316.694 287.145 311.514 287.622C308.007 287.945 304.382 286.653 302.694 283.851C302.276 283.161 301.946 282.42 301.484 281.774C299.165 278.553 295.393 276.469 291.13 276.469C284.306 276.469 278.73 281.833 278.385 288.576C278.737 276.014 289.391 265.94 302.489 265.94C306.62 265.94 310.502 266.959 313.899 268.72C314.552 269.051 315.198 269.425 315.814 269.821C315.836 269.843 315.865 269.858 315.895 269.88C315.902 269.887 315.917 269.894 315.924 269.902C316.959 270.57 317.89 271.406 318.573 272.426C319.578 273.908 320.18 275.669 320.238 277.555Z" fill="#FFB81D"/>
</g>
<rect x="224" y="223.101" width="132" height="132" rx="33.5593" fill="#3F37C9"/>
<path d="M310.45 293.045C310.89 293.045 311.338 293.074 311.786 293.14C315.036 293.617 317.641 296.237 318.118 299.517C318.411 301.505 317.935 303.494 316.775 305.1C316.335 305.709 315.697 306.289 314.882 306.825L314.823 306.861C314.794 306.883 314.743 306.913 314.684 306.957C314.134 307.302 313.583 307.617 313.026 307.903C309.819 309.569 306.216 310.45 302.592 310.45C296.81 310.45 291.351 308.307 287.212 304.418C286.882 304.11 286.566 303.787 286.258 303.464C287.806 304 289.465 304.293 291.189 304.293C296.003 304.293 300.552 301.96 303.362 298.056C303.736 297.535 304.023 297.007 304.279 296.53C304.411 296.295 304.536 296.053 304.676 295.818C305.717 294.109 307.926 293.045 310.45 293.045ZM278.414 289.941C278.767 302.54 289.457 312.643 302.599 312.643C306.745 312.643 310.641 311.624 314.046 309.855C314.706 309.525 315.352 309.151 315.968 308.755C315.99 308.733 316.019 308.711 316.049 308.696L316.085 308.674C317.032 308.057 317.905 307.309 318.566 306.392C319.989 304.411 320.693 301.894 320.297 299.201C319.681 294.997 316.306 291.585 312.101 290.968C311.551 290.888 311.001 290.851 310.45 290.851C307.28 290.851 304.301 292.194 302.797 294.688C302.379 295.386 302.049 296.127 301.586 296.772C299.26 300.001 295.474 302.092 291.196 302.092C284.351 302.092 278.759 296.706 278.414 289.941Z" fill="white"/>
<path d="M318.632 306.275C312.96 315.183 302.922 321.089 291.578 321.089C273.902 321.089 259.594 306.781 259.594 289.112C259.594 271.443 273.902 257.113 291.571 257.113C302.687 257.113 312.49 262.8 318.221 271.407C317.612 270.673 316.863 270.042 316.064 269.521C316.056 269.521 316.056 269.514 316.056 269.514C316.027 269.492 315.997 269.477 315.975 269.455C315.352 269.066 314.713 268.692 314.046 268.347C310.641 266.578 306.745 265.551 302.599 265.551C289.45 265.551 278.745 275.662 278.392 288.268C278.4 288.151 278.4 288.026 278.422 287.909C278.4 288.092 278.4 288.283 278.392 288.459C278.37 288.672 278.37 288.892 278.37 289.112C278.37 289.332 278.37 289.545 278.392 289.758C278.745 302.268 289.362 312.306 302.408 312.306C308.623 312.299 314.361 310.01 318.632 306.275Z" fill="white"/>
<path d="M320.238 277.555C320.407 282.75 316.694 287.145 311.514 287.622C308.007 287.945 304.382 286.653 302.694 283.851C302.276 283.161 301.946 282.42 301.484 281.774C299.165 278.553 295.393 276.469 291.13 276.469C284.306 276.469 278.73 281.833 278.385 288.576C278.737 276.014 289.391 265.94 302.489 265.94C306.62 265.94 310.502 266.959 313.899 268.72C314.552 269.051 315.198 269.425 315.814 269.821C315.836 269.843 315.865 269.858 315.895 269.88C315.902 269.887 315.917 269.894 315.924 269.902C316.959 270.57 317.89 271.406 318.573 272.426C319.578 273.908 320.18 275.669 320.238 277.555Z" fill="#FFB81D"/>
<defs>
<filter id="filter0_f_63_2692" x="90.0001" y="89.1012" width="400" height="400" filterUnits="userSpaceOnUse" color-interpolation-filters="sRGB">
<feFlood flood-opacity="0" result="BackgroundImageFix"/>
<feBlend mode="normal" in="SourceGraphic" in2="BackgroundImageFix" result="shape"/>
<feGaussianBlur stdDeviation="67" result="effect1_foregroundBlur_63_2692"/>
</filter>
<radialGradient id="paint0_radial_63_2692" cx="0" cy="0" r="1" gradientUnits="userSpaceOnUse" gradientTransform="translate(290 289.1) rotate(90) scale(289.101 289.1)">
<stop stop-color="#D9D9D9"/>
<stop offset="1" stop-color="#D9D9D9" stop-opacity="0"/>
</radialGradient>
</defs>
</svg>
