<svg xmlns="http://www.w3.org/2000/svg" width="158" height="39" viewBox="0 0 158 39" fill="none">
  <g clip-path="url(#clip0_512_3207)">
    <path d="M30.0703 21.8254C30.3306 21.8254 30.5953 21.8428 30.8599 21.8818C32.7819 22.1638 34.3221 23.7127 34.6041 25.652C34.7776 26.8278 34.4956 28.0035 33.8101 28.9536C33.5498 29.3137 33.1723 29.6565 32.6908 29.9732L32.6561 29.9949C32.6387 30.0079 32.6083 30.0252 32.5736 30.0513C32.2482 30.2552 31.9228 30.4417 31.5931 30.6109C29.6972 31.5958 27.567 32.1164 25.4237 32.1164C22.005 32.1164 18.7771 30.8496 16.3302 28.5501C16.135 28.3679 15.9484 28.177 15.7662 27.9861C16.6816 28.3028 17.6621 28.4764 18.6817 28.4764C21.5277 28.4764 24.2176 27.0967 25.8793 24.7886C26.1005 24.4806 26.2698 24.1682 26.4216 23.8862C26.4997 23.7474 26.5734 23.6042 26.6559 23.4654C27.272 22.4545 28.5778 21.8254 30.0703 21.8254ZM11.1283 19.9902C11.3365 27.4395 17.6578 33.4136 25.4281 33.4136C27.8793 33.4136 30.1831 32.8106 32.1962 31.765C32.5866 31.5698 32.9684 31.3485 33.3329 31.1142C33.3459 31.1012 33.3632 31.0882 33.3806 31.0795L33.4023 31.0665C33.962 30.7021 34.4782 30.2595 34.8687 29.7172C35.7104 28.5458 36.1269 27.0577 35.8926 25.4655C35.5282 22.9795 33.5324 20.9621 31.0465 20.5976C30.7211 20.5499 30.3957 20.5282 30.0703 20.5282C28.1961 20.5282 26.4346 21.3222 25.5452 22.7973C25.2979 23.2094 25.1027 23.6476 24.8294 24.0294C23.454 25.9384 21.2154 27.1748 18.686 27.1748C14.6382 27.1748 11.3322 23.9904 11.1283 19.9902Z" fill="black"/>
    <path d="M34.9078 29.6482C31.5541 34.9152 25.619 38.4077 18.9116 38.4077C8.46013 38.4077 0 29.9476 0 19.5004C0 9.05322 8.46013 0.580078 18.9073 0.580078C25.4802 0.580078 31.2764 3.94244 34.6648 9.03153C34.3047 8.59767 33.8622 8.22456 33.3893 7.91652C33.385 7.91652 33.385 7.91219 33.385 7.91219C33.3676 7.89917 33.3503 7.89049 33.3372 7.87748C32.9685 7.64754 32.591 7.42627 32.1962 7.22236C30.1831 6.17678 27.8794 5.56938 25.4281 5.56938C17.6535 5.56938 11.3236 11.5479 11.1153 19.0015C11.1196 18.932 11.1196 18.8583 11.1327 18.7889C11.1196 18.8973 11.1196 19.0101 11.1153 19.1143C11.1023 19.2401 11.1023 19.3702 11.1023 19.5004C11.1023 19.6305 11.1023 19.7564 11.1153 19.8822C11.3236 27.2794 17.6014 33.2145 25.3153 33.2145C28.99 33.2101 32.3828 31.8565 34.9078 29.6482Z" fill="black"/>
    <path d="M35.8579 12.6667C35.9577 15.7384 33.7624 18.3372 30.6994 18.6192C28.6256 18.8101 26.4824 18.0465 25.4845 16.3892C25.2372 15.9813 25.042 15.5432 24.7686 15.1614C23.3977 13.2568 21.1677 12.0246 18.647 12.0246C14.6122 12.0246 11.3149 15.1961 11.111 19.1832C11.3192 11.7556 17.6188 5.79883 25.363 5.79883C27.8056 5.79883 30.1007 6.40188 32.1094 7.44313C32.4956 7.63836 32.8773 7.85963 33.2418 8.09391C33.2548 8.10692 33.2722 8.1156 33.2895 8.12862C33.2938 8.13295 33.3025 8.13729 33.3069 8.14163C33.9186 8.53644 34.4696 9.03103 34.8731 9.63409C35.4674 10.5105 35.8232 11.5517 35.8579 12.6667Z" fill="#5C5C5C"/>
    <path d="M63.3814 12.9665C63.0473 13.4047 62.6222 13.6217 62.1015 13.6217C61.7458 13.6217 61.3944 13.5262 61.0386 13.3397C60.0191 12.8624 58.9127 12.6195 57.7283 12.6195C56.2706 12.6195 54.9994 12.9275 53.9191 13.5392C52.8345 14.1553 52.0015 15.0187 51.4201 16.1337C50.8387 17.2487 50.5437 18.5242 50.5437 19.9603C50.5437 22.4159 51.2032 24.2814 52.5264 25.5526C53.8497 26.8238 55.5807 27.4572 57.7283 27.4572C58.9995 27.4572 60.1015 27.2186 61.0386 26.737C61.4117 26.5722 61.7458 26.4854 62.0365 26.4854C62.5788 26.4854 63.0343 26.7153 63.4118 27.1709C63.7242 27.5657 63.8803 27.9952 63.8803 28.4507C63.8803 28.7848 63.7979 29.0842 63.6287 29.3575C63.4638 29.6265 63.2209 29.8347 62.9085 29.9822C61.2859 30.7935 59.5548 31.2014 57.724 31.2014C55.6805 31.2014 53.8063 30.7675 52.1012 29.9042C50.3919 29.0408 49.0296 27.7653 48.01 26.0776C46.9905 24.3899 46.4785 22.3508 46.4785 19.9559C46.4785 17.83 46.9644 15.9254 47.9319 14.2377C48.8994 12.5501 50.24 11.2355 51.9451 10.2853C53.6544 9.33954 55.5807 8.8623 57.724 8.8623C59.7848 8.8623 61.6764 9.36557 63.4031 10.3678C64.0062 11.2789 63.9975 12.1422 63.3814 12.9665Z" fill="black"/>
    <path d="M81.716 14.4028C82.0718 14.7585 82.2453 15.2141 82.2453 15.7781V28.9932C82.2453 29.5356 82.0674 29.9868 81.716 30.3512C81.3603 30.7156 80.9134 30.8979 80.3711 30.8979C79.8288 30.8979 79.3862 30.72 79.0435 30.3686C78.7007 30.0128 78.5185 29.5659 78.4968 29.0236C77.7463 29.8913 76.6226 30.5768 75.1215 31.0801C73.065 31.4185 71.2558 31.0931 69.6896 30.0996C68.5226 29.362 67.6028 28.3338 66.926 27.0236C66.2492 25.7133 65.9108 24.2209 65.9108 22.5549C65.9108 20.8889 66.2448 19.3964 66.9086 18.0732C67.5768 16.7499 68.4879 15.7217 69.6419 14.9798C70.7959 14.2423 72.0715 13.8691 73.4685 13.8691C74.4663 13.8691 75.4035 14.0514 76.2798 14.4158C77.1562 14.7802 77.8938 15.2445 78.4968 15.8041V15.7738C78.4968 15.2314 78.6747 14.7802 79.0261 14.4158C79.3819 14.0514 79.8288 13.8691 80.3711 13.8691C80.9134 13.8691 81.3646 14.047 81.716 14.4028ZM77.3775 26.2903C78.2322 25.3012 78.6574 24.056 78.6574 22.5592C78.6574 21.0581 78.2322 19.8086 77.3775 18.8107C76.5228 17.8129 75.4208 17.3096 74.0672 17.3096C72.7353 17.3096 71.642 17.8085 70.7873 18.8107C69.9326 19.8086 69.5074 21.0581 69.5074 22.5592C69.5074 24.0603 69.9282 25.3012 70.7743 26.2903C71.6203 27.2795 72.7179 27.7741 74.0715 27.7741C75.4165 27.7741 76.5228 27.2795 77.3775 26.2903Z" fill="black"/>
    <path d="M96.5712 14.7149C96.9963 15.0707 97.2133 15.4872 97.2133 15.9644C97.2133 16.6109 97.0441 17.0924 96.7143 17.4178C96.3803 17.7389 95.9855 17.9037 95.5256 17.9037C95.2132 17.9037 94.8574 17.83 94.4626 17.6868C94.4019 17.6651 94.2587 17.6261 94.0418 17.561C93.8249 17.4959 93.5906 17.4655 93.339 17.4655C92.7966 17.4655 92.276 17.6304 91.7771 17.9645C91.2782 18.2985 90.866 18.8018 90.5449 19.4786C90.2196 20.1554 90.059 20.9624 90.059 21.8995V29.3054C90.059 29.8477 89.8812 30.2989 89.5297 30.6633C89.174 31.0278 88.7271 31.21 88.1848 31.21C87.6425 31.21 87.1956 31.0278 86.8398 30.6633C86.4841 30.2989 86.3105 29.8477 86.3105 29.3054V16.4026C86.3105 15.8603 86.4884 15.4091 86.8398 15.0447C87.1956 14.6802 87.6425 14.498 88.1848 14.498C88.7271 14.498 89.174 14.6802 89.5297 15.0447C89.8855 15.4091 90.059 15.8603 90.059 16.4026V16.8104C90.5363 15.9557 91.2261 15.305 92.1198 14.8581C93.0136 14.4112 93.9724 14.1856 94.9919 14.1856C95.621 14.1813 96.146 14.3592 96.5712 14.7149Z" fill="black"/>
    <path d="M114.051 8.3116C114.407 8.66736 114.58 9.12291 114.58 9.68692V28.9934C114.58 29.5357 114.403 29.9869 114.051 30.3513C113.695 30.7157 113.248 30.898 112.706 30.898C112.164 30.898 111.721 30.7201 111.379 30.3687C111.036 30.0129 110.854 29.566 110.832 29.0237C110.081 29.8914 108.958 30.5769 107.457 31.0802C105.4 31.4186 103.591 31.0932 102.025 30.0997C100.858 29.3621 99.9379 28.3339 99.2611 27.0237C98.5843 25.7134 98.2458 24.221 98.2458 22.555C98.2458 20.889 98.5799 19.3965 99.2437 18.0733C99.9118 16.75 100.823 15.7218 101.977 14.9799C103.131 14.2424 104.407 13.8693 105.804 13.8693C106.801 13.8693 107.739 14.0515 108.615 14.4159C109.491 14.7803 110.229 15.2446 110.832 15.8042V9.68692C110.832 9.1446 111.01 8.69339 111.361 8.32896C111.717 7.96452 112.164 7.7823 112.706 7.7823C113.248 7.77797 113.695 7.95584 114.051 8.3116ZM109.708 26.2905C110.563 25.3013 110.988 24.0561 110.988 22.5593C110.988 21.0582 110.563 19.8087 109.708 18.8108C108.854 17.813 107.752 17.3097 106.398 17.3097C105.066 17.3097 103.973 17.8086 103.118 18.8108C102.263 19.8087 101.838 21.0582 101.838 22.5593C101.838 24.0604 102.259 25.3013 103.105 26.2905C103.951 27.2796 105.049 27.7742 106.402 27.7742C107.752 27.7742 108.854 27.2796 109.708 26.2905Z" fill="black"/>
    <path d="M118.767 12.1205C118.476 11.8905 118.329 11.4871 118.329 10.9014V10.307C118.329 9.72562 118.485 9.3178 118.797 9.08786C119.11 8.85792 119.609 8.74512 120.299 8.74512C121.027 8.74512 121.539 8.85792 121.83 9.08786C122.121 9.3178 122.268 9.72562 122.268 10.307V10.9014C122.268 11.5044 122.116 11.9166 121.817 12.1335C121.518 12.3504 121.001 12.4632 120.273 12.4632C119.561 12.4632 119.062 12.3504 118.767 12.1205ZM121.643 30.6633C121.288 31.0278 120.841 31.21 120.299 31.21C119.756 31.21 119.309 31.0278 118.954 30.6633C118.598 30.2989 118.424 29.8477 118.424 29.3054V16.4026C118.424 15.8603 118.602 15.4091 118.954 15.0447C119.309 14.6802 119.756 14.498 120.299 14.498C120.841 14.498 121.288 14.6802 121.643 15.0447C121.999 15.4091 122.173 15.8603 122.173 16.4026V29.3054C122.173 29.8434 121.995 30.2989 121.643 30.6633Z" fill="black"/>
    <path d="M139.071 12.1205C139.362 11.8905 139.509 11.4871 139.509 10.9014V10.307C139.509 9.72562 139.353 9.3178 139.041 9.08786C138.729 8.85792 138.23 8.74512 137.54 8.74512C136.811 8.74512 136.299 8.85792 136.008 9.08786C135.718 9.3178 135.57 9.72562 135.57 10.307V10.9014C135.57 11.5044 135.722 11.9166 136.021 12.1335C136.325 12.3504 136.837 12.4632 137.566 12.4632C138.277 12.4632 138.781 12.3504 139.071 12.1205ZM136.195 30.6633C136.551 31.0278 136.997 31.21 137.54 31.21C138.082 31.21 138.529 31.0278 138.885 30.6633C139.24 30.2989 139.414 29.8477 139.414 29.3054V16.4026C139.414 15.8603 139.236 15.4091 138.885 15.0447C138.529 14.6802 138.082 14.498 137.54 14.498C136.997 14.498 136.551 14.6802 136.195 15.0447C135.839 15.4091 135.666 15.8603 135.666 16.4026V29.3054C135.666 29.8434 135.843 30.2989 136.195 30.6633Z" fill="black"/>
    <path d="M156.577 16.0728C157.389 17.331 157.796 19.0751 157.796 21.3051V29.301C157.796 29.8433 157.619 30.2945 157.267 30.659C156.911 31.0234 156.465 31.2056 155.922 31.2056C155.38 31.2056 154.933 31.0234 154.577 30.659C154.221 30.2945 154.048 29.8433 154.048 29.301V21.3051C154.048 20.1597 153.809 19.2573 153.328 18.6022C152.846 17.9471 152.026 17.6173 150.859 17.6173C149.649 17.6173 148.703 17.9644 148.017 18.6629C147.328 19.3614 146.985 20.2421 146.985 21.3008V29.2967C146.985 29.839 146.807 30.2902 146.456 30.6546C146.1 31.019 145.653 31.2013 145.111 31.2013C144.568 31.2013 144.121 31.019 143.766 30.6546C143.41 30.2902 143.236 29.839 143.236 29.2967V16.4026C143.236 15.8602 143.414 15.409 143.766 15.0446C144.121 14.6802 144.568 14.4979 145.111 14.4979C145.653 14.4979 146.1 14.6802 146.456 15.0446C146.811 15.409 146.985 15.8602 146.985 16.4026V16.9319C147.549 16.1813 148.282 15.5349 149.189 14.9969C150.096 14.4546 151.089 14.1856 152.174 14.1856C154.295 14.1812 155.766 14.8147 156.577 16.0728Z" fill="black"/>
    <path d="M126.989 29.3366V16.5163H125.869C124.719 16.5163 124.16 15.9262 124.16 15.0021C124.16 14.078 124.719 13.5227 125.869 13.5227H126.989V9.77854C126.989 8.69391 127.648 7.9043 128.663 7.9043C129.713 7.9043 130.373 8.72428 130.373 9.77854V13.527H131.887C132.841 13.527 133.496 14.052 133.496 15.0065C133.496 15.9913 132.837 16.5206 131.887 16.5206H130.373V29.341C130.373 30.4256 129.713 31.2152 128.663 31.2152C127.644 31.2109 126.989 30.4212 126.989 29.3366Z" fill="black"/>
  </g>
  <defs>
    <clipPath id="clip0_512_3207">
      <rect width="157.797" height="37.8276" fill="white" transform="translate(0 0.580078)"/>
    </clipPath>
  </defs>
</svg>