<svg xmlns="http://www.w3.org/2000/svg" width="99" height="99" viewBox="0 0 99 99" fill="none">
  <rect x="0.41687" y="0.63147" width="98.1665" height="98.1665" rx="24.9576" fill="#3F37C9"/>
  <path d="M64.7086 52.6475C65.036 52.6475 65.3689 52.6694 65.7018 52.7185C68.1191 53.0732 70.0563 55.0213 70.411 57.4605C70.6293 58.9393 70.2746 60.4181 69.4124 61.6131C69.085 62.066 68.6103 62.4971 68.0045 62.8955L67.9609 62.9228C67.9391 62.9391 67.9009 62.961 67.8572 62.9937C67.4479 63.2502 67.0387 63.4848 66.624 63.6976C64.2393 64.9363 61.56 65.5912 58.8643 65.5912C54.5643 65.5912 50.5044 63.9978 47.4268 61.1056C47.1812 60.8765 46.9466 60.6364 46.7174 60.3963C47.8688 60.7946 49.102 61.0129 50.3844 61.0129C53.9641 61.0129 57.3473 59.2776 59.4373 56.3746C59.7156 55.9871 59.9284 55.5942 60.1194 55.2395C60.2176 55.0649 60.3104 54.8848 60.4141 54.7102C61.1889 53.4388 62.8315 52.6475 64.7086 52.6475ZM40.884 50.3393C41.146 59.7087 49.0966 67.2228 58.8698 67.2228C61.9529 67.2228 64.8505 66.4643 67.3825 65.1492C67.8736 64.9036 68.3538 64.6253 68.8122 64.3306C68.8285 64.3143 68.8504 64.2979 68.8722 64.287L68.8995 64.2706C69.6034 63.8122 70.2528 63.2556 70.7439 62.5735C71.8025 61.1002 72.3264 59.2285 72.0317 57.2258C71.5733 54.0991 69.0632 51.5616 65.9364 51.1033C65.5271 51.0432 65.1179 51.0159 64.7086 51.0159C62.3512 51.0159 60.1358 52.0145 59.0171 53.8699C58.7061 54.3883 58.4605 54.9394 58.1167 55.4196C56.3869 57.8206 53.5712 59.3758 50.3899 59.3758C45.2986 59.3758 41.1405 55.3705 40.884 50.3393Z" fill="white"/>
  <path d="M70.793 62.4864C66.5748 69.1111 59.1099 73.5038 50.6736 73.5038C37.5281 73.5038 26.8872 62.863 26.8872 49.7229C26.8872 36.5828 37.5281 25.9256 50.6681 25.9256C58.9352 25.9256 66.2256 30.1547 70.4874 36.5555C70.0345 36.0098 69.4779 35.5406 68.8831 35.1531C68.8776 35.1531 68.8776 35.1477 68.8776 35.1477C68.8558 35.1313 68.834 35.1204 68.8176 35.104C68.3538 34.8148 67.879 34.5365 67.3824 34.28C64.8505 32.9649 61.9529 32.201 58.8698 32.201C49.0911 32.201 41.1296 39.7205 40.8676 49.0954C40.8731 49.008 40.8731 48.9153 40.8895 48.828C40.8731 48.9644 40.8731 49.1063 40.8676 49.2372C40.8513 49.3955 40.8513 49.5592 40.8513 49.7229C40.8513 49.8866 40.8513 50.0448 40.8676 50.2031C41.1296 59.507 49.0256 66.972 58.7279 66.972C63.3498 66.9665 67.6171 65.264 70.793 62.4864Z" fill="white"/>
  <path d="M71.9879 41.1279C72.1134 44.9914 69.3522 48.26 65.4997 48.6147C62.8913 48.8548 60.1957 47.8944 58.9406 45.8099C58.6295 45.297 58.384 44.7458 58.0402 44.2656C56.3158 41.8701 53.511 40.3203 50.3406 40.3203C45.2657 40.3203 41.1185 44.3093 40.8621 49.3241C41.124 39.982 49.0473 32.4897 58.7878 32.4897C61.86 32.4897 64.7467 33.2482 67.2732 34.5579C67.7588 34.8034 68.239 35.0817 68.6974 35.3764C68.7138 35.3928 68.7356 35.4037 68.7574 35.4201C68.7629 35.4255 68.7738 35.431 68.7793 35.4364C69.5487 35.933 70.2417 36.5551 70.7492 37.3136C71.4968 38.4159 71.9442 39.7255 71.9879 41.1279Z" fill="#FFB81D"/>
</svg>