<svg xmlns="http://www.w3.org/2000/svg" width="41" height="41" viewBox="0 0 41 41" fill="none">
  <g clip-path="url(#clip0_286_12426)">
    <path d="M3.83333 5.83545C3.83333 3.07378 6.07167 0.835449 8.83333 0.835449C11.595 0.835449 13.8333 3.07378 13.8333 5.83545C13.8333 8.59712 11.595 10.8354 8.83333 10.8354C6.07167 10.8354 3.83333 8.59712 3.83333 5.83545ZM12.1667 19.1688C12.1667 21.9304 14.405 24.1688 17.1667 24.1688C19.9283 24.1688 22.1667 21.9304 22.1667 19.1688C22.1667 16.4071 19.9283 14.1688 17.1667 14.1688C14.405 14.1688 12.1667 16.4071 12.1667 19.1688ZM25.5 10.8354C28.2617 10.8354 30.5 8.59712 30.5 5.83545C30.5 3.07378 28.2617 0.835449 25.5 0.835449C22.7383 0.835449 20.5 3.07378 20.5 5.83545C20.5 8.59712 22.7383 10.8354 25.5 10.8354ZM10.4217 14.3788C10.0767 13.0421 8.71833 12.2254 7.37667 12.5821C3.39167 13.6071 0.5 17.4288 0.5 21.6688C0.5 23.0488 1.61833 24.1688 3 24.1688C4.38167 24.1688 5.5 23.0488 5.5 21.6688C5.5 19.7071 6.84333 17.8821 8.62333 17.4221C9.96 17.0788 10.765 15.7154 10.4217 14.3788ZM28.8333 21.6688C28.8333 23.0488 29.9517 24.1688 31.3333 24.1688C32.715 24.1688 33.8333 23.0488 33.8333 21.6688C33.8333 17.4288 30.9417 13.6071 26.9567 12.5821C25.62 12.2254 24.2567 13.0405 23.9117 14.3788C23.5667 15.7154 24.3717 17.0788 25.71 17.4221C27.49 17.8804 28.8333 19.7071 28.8333 21.6688ZM38 30.8354H35.5V28.3354C35.5 26.9554 34.3817 25.8354 33 25.8354C31.6183 25.8354 30.5 26.9554 30.5 28.3354V30.8354H28C26.6183 30.8354 25.5 31.9554 25.5 33.3354C25.5 34.7155 26.6183 35.8354 28 35.8354H30.5V38.3354C30.5 39.7154 31.6183 40.8354 33 40.8354C34.3817 40.8354 35.5 39.7154 35.5 38.3354V35.8354H38C39.3817 35.8354 40.5 34.7155 40.5 33.3354C40.5 31.9554 39.3817 30.8354 38 30.8354ZM20.4167 26.3304C19.3733 26.0021 18.28 25.8354 17.1667 25.8354C11.6517 25.8354 7.16667 29.9488 7.16667 35.0021C7.16667 36.3821 8.285 37.5021 9.66667 37.5021C11.0483 37.5021 12.1667 36.3821 12.1667 35.0021C12.1667 32.7038 14.41 30.8354 17.1667 30.8354C17.77 30.8354 18.3583 30.9254 18.9167 31.0988C20.2383 31.5188 21.6367 30.7821 22.0517 29.4638C22.465 28.1471 21.7333 26.7438 20.4167 26.3304Z" fill="#3F37C9"/>
  </g>
  <defs>
    <clipPath id="clip0_286_12426">
      <rect width="40" height="40" fill="white" transform="translate(0.5 0.835449)"/>
    </clipPath>
  </defs>
</svg>