<svg xmlns="http://www.w3.org/2000/svg" width="41" height="40" viewBox="0 0 41 40" fill="none">
  <g clip-path="url(#clip0_354_2352)">
    <path d="M40.1982 21.6033C40.2041 24.214 39.6945 26.8002 38.6986 29.2136C37.7028 31.6269 36.2402 33.8198 34.3949 35.6667C33.3764 36.708 32.0063 37.3321 30.5522 37.4172C29.0981 37.5023 27.6645 37.0421 26.5316 36.1267L24.3949 34.3933C24.1298 34.1901 23.9082 33.9359 23.743 33.6456C23.5778 33.3554 23.4725 33.0349 23.4332 32.7033C23.3939 32.3716 23.4215 32.0354 23.5142 31.7146C23.607 31.3937 23.7632 31.0948 23.9734 30.8353C24.1837 30.5758 24.4438 30.3611 24.7385 30.2038C25.0331 30.0465 25.3562 29.9498 25.6888 29.9195C26.0215 29.8892 26.3568 29.9258 26.675 30.0272C26.9932 30.1286 27.2879 30.2928 27.5416 30.51L29.6799 32.2433C29.852 32.3743 30.0666 32.4368 30.2822 32.4186C30.4977 32.4004 30.6988 32.3029 30.8466 32.145C32.2687 30.6959 33.3832 28.9742 34.1232 27.0836C34.8633 25.1929 35.2135 23.1721 35.153 21.1427C35.0924 19.1132 34.6223 17.1169 33.7709 15.2737C32.9194 13.4305 31.7042 11.7784 30.1982 10.4167C27.2869 7.86316 23.5008 6.53454 19.6323 6.70882C15.7637 6.88311 12.1124 8.54678 9.44249 11.3517C6.77256 14.1566 5.29087 17.8855 5.30748 21.7579C5.32408 25.6304 6.83769 29.3464 9.53157 32.1283C9.67898 32.2872 9.88067 32.385 10.0967 32.4023C10.3128 32.4195 10.5274 32.3551 10.6982 32.2217L12.7682 30.51C13.0213 30.3007 13.313 30.1434 13.6268 30.0469C13.9407 29.9504 14.2704 29.9167 14.5973 29.9476C14.9241 29.9786 15.2417 30.0736 15.5318 30.2273C15.822 30.381 16.079 30.5903 16.2882 30.8433C16.4975 31.0963 16.6548 31.3881 16.7513 31.7019C16.8478 32.0157 16.8815 32.3455 16.8506 32.6724C16.8196 32.9992 16.7246 33.3168 16.5709 33.6069C16.4172 33.8971 16.2079 34.1541 15.9549 34.3633L13.8899 36.075C12.758 37.0126 11.3142 37.4891 9.8466 37.4094C8.37895 37.3297 6.99528 36.6997 5.97157 35.645C3.66298 33.3085 1.96536 30.4395 1.02869 27.2913C0.0920294 24.143 -0.0548429 20.8126 0.601051 17.5941C1.25694 14.3757 2.69541 11.3683 4.78937 8.83773C6.88333 6.30713 9.56833 4.3312 12.6071 3.08452C15.6459 1.83783 18.945 1.35876 22.2129 1.68963C25.4808 2.0205 28.6169 3.15113 31.3442 4.98162C34.0714 6.81212 36.3059 9.28613 37.8501 12.1851C39.3943 15.0841 40.2008 18.3187 40.1982 21.6033ZM27.7999 17.6033C28.2689 17.1343 28.5324 16.4982 28.5324 15.835C28.5324 15.1717 28.2689 14.5356 27.7999 14.0667C27.3309 13.5977 26.6948 13.3342 26.0316 13.3342C25.3683 13.3342 24.7322 13.5977 24.2632 14.0667L19.9899 18.3333C19.3503 18.3747 18.7362 18.5996 18.2212 18.9811C17.7061 19.3626 17.312 19.8845 17.086 20.4843C16.86 21.084 16.8117 21.7362 16.9468 22.3627C17.082 22.9893 17.395 23.5635 17.8482 24.0167C18.3014 24.4699 18.8756 24.7829 19.5022 24.918C20.1287 25.0532 20.7809 25.0049 21.3806 24.7789C21.9804 24.5529 22.5023 24.1588 22.8838 23.6437C23.2653 23.1287 23.4902 22.5146 23.5316 21.875L27.7999 17.6033Z" fill="#3F37C9"/>
  </g>
  <defs>
    <clipPath id="clip0_354_2352">
      <rect width="40" height="40" fill="white" transform="translate(0.198242)"/>
    </clipPath>
  </defs>
</svg>