<svg xmlns="http://www.w3.org/2000/svg" width="19" height="19" viewBox="0 0 19 19" fill="none">
  <circle cx="9.69043" cy="9.25586" r="9.03491" fill="url(#paint0_diamond_512_2643)"/>
  <path d="M12.2716 9.64075C12.3318 9.64075 12.3929 9.64515 12.4531 9.65307C12.9031 9.71556 13.2642 10.0606 13.3309 10.4919C13.3716 10.7533 13.305 11.0138 13.1448 11.226C13.0827 11.3078 12.9938 11.3853 12.8809 11.4548L12.8744 11.4592C12.8707 11.4619 12.8651 11.4654 12.8586 11.4698C12.7864 11.5138 12.7123 11.5534 12.6392 11.5886C12.2216 11.7946 11.7512 11.9037 11.2798 11.9037C10.5261 11.9037 9.81496 11.6388 9.27604 11.1564C9.12973 11.0262 9.00102 10.8836 8.89083 10.7313C9.16677 10.895 9.49364 10.9892 9.84181 10.9892C10.4196 10.9892 10.9659 10.7234 11.303 10.278C11.3465 10.2208 11.3799 10.1618 11.4123 10.1046C11.4289 10.0747 11.4465 10.0448 11.4641 10.0157C11.6113 9.7851 11.9206 9.64075 12.2716 9.64075ZM8.22876 9.35645C8.27321 10.8677 9.62235 12.0798 11.2808 12.0798C11.804 12.0798 12.2956 11.9574 12.7253 11.7453C12.8086 11.7057 12.8901 11.6608 12.9679 11.6133C12.9707 11.6106 12.9744 11.608 12.9781 11.6062L12.9827 11.6036C13.1022 11.5296 13.2124 11.4399 13.2957 11.3298C13.4753 11.0922 13.5642 10.7903 13.5142 10.4672C13.4364 9.9629 13.0105 9.55361 12.4799 9.47967C12.4105 9.46999 12.341 9.46559 12.2716 9.46559C11.8715 9.46559 11.4956 9.62666 11.3058 9.92593C11.253 10.0095 11.2113 10.0984 11.153 10.1759C10.8595 10.5632 10.3817 10.814 9.84181 10.814C8.97787 10.814 8.27228 10.168 8.22876 9.35645Z" fill="white"/>
  <path d="M13.3033 11.316C12.5875 12.3845 11.3208 13.0931 9.88923 13.0931C7.65856 13.0931 5.85291 11.3767 5.85291 9.25722C5.85291 7.13772 7.65856 5.4187 9.88831 5.4187C11.2912 5.4187 12.5283 6.10085 13.2515 7.13332C13.1746 7.0453 13.0801 6.9696 12.9792 6.90711C12.9783 6.90711 12.9783 6.90623 12.9783 6.90623C12.9746 6.90359 12.9709 6.90182 12.9681 6.89918C12.8894 6.85253 12.8088 6.80764 12.7246 6.76628C12.2949 6.55415 11.8032 6.43092 11.28 6.43092C9.6207 6.43092 8.2697 7.64383 8.22526 9.156C8.22618 9.14191 8.22618 9.12695 8.22896 9.11287C8.22618 9.13487 8.22618 9.15776 8.22526 9.17888C8.22248 9.20441 8.22248 9.23081 8.22248 9.25722C8.22248 9.28362 8.22248 9.30915 8.22526 9.33468C8.2697 10.8354 9.60959 12.0395 11.256 12.0395C12.0403 12.0386 12.7644 11.764 13.3033 11.316Z" fill="white"/>
  <path d="M13.5069 7.87113C13.5282 8.4943 13.0596 9.02154 12.4059 9.07875C11.9633 9.11748 11.5058 8.96256 11.2929 8.62633C11.2401 8.54359 11.1984 8.45469 11.1401 8.37724C10.8475 7.99083 10.3715 7.74086 9.83352 7.74086C8.97236 7.74086 8.26862 8.38428 8.2251 9.19318C8.26954 7.68629 9.61406 6.47778 11.2669 6.47778C11.7883 6.47778 12.2781 6.60013 12.7068 6.81138C12.7892 6.85098 12.8707 6.89587 12.9485 6.9434C12.9513 6.94605 12.955 6.94781 12.9587 6.95045C12.9596 6.95133 12.9615 6.95221 12.9624 6.95309C13.093 7.03318 13.2106 7.13353 13.2967 7.25587C13.4235 7.43367 13.4995 7.64492 13.5069 7.87113Z" fill="#FFB81D"/>
  <defs>
    <radialGradient id="paint0_diamond_512_2643" cx="0" cy="0" r="1" gradientUnits="userSpaceOnUse" gradientTransform="translate(18.1091 6.4804) rotate(168.241) scale(22.8161 68.4937)">
      <stop stop-color="#34C4F8"/>
      <stop offset="0.445868" stop-color="#9E00FF"/>
      <stop offset="1" stop-color="#3F37C9"/>
    </radialGradient>
  </defs>
</svg>