<svg xmlns="http://www.w3.org/2000/svg" width="41" height="40" viewBox="0 0 41 40" fill="none">
  <g clip-path="url(#clip0_353_2240)">
    <path d="M36.8649 28.9183V11.0817C38.8282 10.1417 40.1982 8.15167 40.1982 5.83333C40.1982 2.61667 37.5816 0 34.3649 0C32.0466 0 30.0566 1.37 29.1166 3.33333H11.2799C10.3399 1.37 8.34991 0 6.03158 0C2.81491 0 0.198242 2.61667 0.198242 5.83333C0.198242 8.15167 1.56824 10.1417 3.53158 11.0817V28.9183C1.56824 29.8583 0.198242 31.8483 0.198242 34.1667C0.198242 37.3833 2.81491 40 6.03158 40C8.34991 40 10.3399 38.63 11.2799 36.6667H29.1166C30.0566 38.63 32.0466 40 34.3649 40C37.5816 40 40.1982 37.3833 40.1982 34.1667C40.1982 31.8483 38.8282 29.8583 36.8649 28.9183ZM28.6166 33.3333H11.7799C11.4116 30.7883 9.40824 28.7867 6.86491 28.4183V11.5817C9.40991 11.2133 11.4116 9.21 11.7799 6.66667H28.6149C28.9832 9.21167 30.9866 11.2133 33.5299 11.5817V28.4167C30.9849 28.785 28.9832 30.7883 28.6149 33.3317L28.6166 33.3333ZM34.3649 3.33333C35.7432 3.33333 36.8649 4.455 36.8649 5.83333C36.8649 7.21167 35.7432 8.33333 34.3649 8.33333C32.9866 8.33333 31.8649 7.21167 31.8649 5.83333C31.8649 4.455 32.9866 3.33333 34.3649 3.33333ZM6.03158 3.33333C7.40991 3.33333 8.53158 4.455 8.53158 5.83333C8.53158 7.21167 7.40991 8.33333 6.03158 8.33333C4.65324 8.33333 3.53158 7.21167 3.53158 5.83333C3.53158 4.455 4.65324 3.33333 6.03158 3.33333ZM6.03158 36.6667C4.65324 36.6667 3.53158 35.545 3.53158 34.1667C3.53158 32.7883 4.65324 31.6667 6.03158 31.6667C7.40991 31.6667 8.53158 32.7883 8.53158 34.1667C8.53158 35.545 7.40991 36.6667 6.03158 36.6667ZM34.3649 36.6667C32.9866 36.6667 31.8649 35.545 31.8649 34.1667C31.8649 32.7883 32.9866 31.6667 34.3649 31.6667C35.7432 31.6667 36.8649 32.7883 36.8649 34.1667C36.8649 35.545 35.7432 36.6667 34.3649 36.6667ZM23.5316 18.3333V15C23.5316 13.1617 22.0366 11.6667 20.1982 11.6667H13.5316C11.6932 11.6667 10.1982 13.1617 10.1982 15V18.3333C10.1982 20.1717 11.6932 21.6667 13.5316 21.6667H20.1982C22.0366 21.6667 23.5316 20.1717 23.5316 18.3333ZM13.5316 15H20.1982V18.3333H13.5316V15ZM30.1982 21.6667V25C30.1982 26.8383 28.7032 28.3333 26.8649 28.3333H20.1982C18.3599 28.3333 16.8649 26.8383 16.8649 25H26.8649V18.3333C28.7032 18.3333 30.1982 19.8283 30.1982 21.6667Z" fill="#3F37C9"/>
  </g>
  <defs>
    <clipPath id="clip0_353_2240">
      <rect width="40" height="40" fill="white" transform="translate(0.198242)"/>
    </clipPath>
  </defs>
</svg>