<svg xmlns="http://www.w3.org/2000/svg" width="40" height="40" viewBox="0 0 40 40" fill="none">
  <g clip-path="url(#clip0_512_2304)">
    <path d="M35.2567 19.1792C37.8651 18.0281 39.6962 15.4165 39.6962 12.3471C39.6962 9.88365 38.7148 7.54371 36.9281 5.75706C33.2297 2.0586 26.9525 0.0134243 19.7252 0.051298C12.7153 0.125399 6.44306 2.25785 2.94386 5.75706C1.1572 7.54371 0.175781 9.88365 0.175781 12.4014C0.175781 15.4297 2.00525 18.0314 4.61359 19.1792L2.43832 23.2185C0.959602 25.9701 0.175781 29.0741 0.175781 32.1962C0.175781 36.2635 3.48397 39.5717 7.55128 39.5717H32.3223C36.3896 39.5717 39.6978 36.2635 39.6978 32.1962C39.6978 29.0741 38.914 25.9701 37.4336 23.2185L35.2567 19.1792ZM6.43647 9.24967C9.0053 6.68249 14.115 5.05063 19.7779 4.993C25.5973 4.96665 30.7119 6.52441 33.4371 9.24967C34.2901 10.1027 34.7594 11.201 34.7578 12.4014C34.7578 13.5772 33.9311 14.5652 32.8279 14.8122L31.112 11.9535C30.9029 11.6061 30.6114 11.3146 30.264 11.1071C30.073 10.9919 25.4968 8.28472 19.9376 8.28472C14.3784 8.28472 9.80229 10.9919 9.61128 11.1071C9.26383 11.3146 8.97236 11.6061 8.76324 11.9535L7.04904 14.8122C5.94411 14.5652 5.11748 13.5706 5.11748 12.3421C5.11748 11.201 5.58349 10.101 6.43647 9.24967ZM32.3223 34.6317H7.55128C6.20923 34.6317 5.11583 33.5383 5.11583 32.1962C5.11583 29.8892 5.69546 27.5954 6.78886 25.5601L10.5482 18.5765L12.6478 15.0756C13.7807 14.5042 16.6887 13.2231 19.936 13.2231C23.1832 13.2231 26.0946 14.5075 27.2242 15.0756L29.3237 18.5748L33.0815 25.5584C34.1765 27.5921 34.7561 29.8859 34.7561 32.1946C34.7561 33.5366 33.6644 34.63 32.3207 34.63L32.3223 34.6317ZM26.5244 24.7516C26.5244 28.3841 23.5702 31.3383 19.9376 31.3383C16.305 31.3383 13.3509 28.3841 13.3509 24.7516C13.3509 21.119 16.305 18.1648 19.9376 18.1648C23.5702 18.1648 26.5244 21.119 26.5244 24.7516Z" fill="#5A53D0"/>
  </g>
  <defs>
    <clipPath id="clip0_512_2304">
      <rect width="39.5204" height="39.5204" fill="white" transform="translate(0.175781 0.0513916)"/>
    </clipPath>
  </defs>
</svg>