<svg xmlns="http://www.w3.org/2000/svg" width="16" height="16" viewBox="0 0 16 16" fill="none">
  <g clip-path="url(#clip0_515_3407)">
    <path d="M1.64695 7.73L4.97989 9.94653C5.34513 10.19 5.77124 10.3124 6.19798 10.3124C6.58141 10.3124 6.96548 10.2139 7.30624 10.0143L14.4855 5.81408C15.7406 5.14071 16.2313 3.61136 15.6038 2.33366C15.2887 1.69167 14.7409 1.21536 14.0612 0.991946C13.3816 0.769164 12.6587 0.826899 12.0236 1.15888C12.0123 1.16452 12.001 1.1708 11.9897 1.17708L8.99876 2.89344L6.12204 0.498061C5.67585 0.117762 5.05771 0.0117057 4.50986 0.221309L3.85532 0.570857C3.00874 1.0227 2.83554 2.16234 3.50953 2.84512L5.52336 4.88781L5.05206 5.15828L3.30683 4.51755C2.85123 4.35125 2.35609 4.37133 1.91366 4.57466C1.31686 4.85078 0.925263 5.4068 0.865017 6.06133C0.804772 6.71525 1.08843 7.33276 1.64821 7.73H1.64695ZM4.81422 7.07735C5.07591 7.17336 5.36521 7.14889 5.60745 7.0102L12.9065 2.8219C13.0841 2.73341 13.285 2.72023 13.4732 2.78173C13.6671 2.84574 13.8228 2.98067 13.9131 3.16391C14.092 3.5279 13.952 3.96342 13.5642 4.17239L6.35487 8.38956C6.25069 8.45044 6.12393 8.44793 6.02226 8.37952L3.13928 6.46171L4.81359 7.07672L4.81422 7.07735Z" fill="#46D7E2"/>
    <path d="M14.9206 13.2939H1.74199C1.22238 13.2939 0.800659 13.7157 0.800659 14.2353C0.800659 14.7549 1.22175 15.1766 1.74199 15.1766H14.9206C15.4409 15.1766 15.862 14.7549 15.862 14.2353C15.862 13.7157 15.4409 13.2939 14.9206 13.2939Z" fill="#46D7E2"/>
  </g>
  <defs>
    <clipPath id="clip0_515_3407">
      <rect width="15.0613" height="15.0613" fill="white" transform="translate(0.797363 0.115356)"/>
    </clipPath>
  </defs>
</svg>