<svg xmlns="http://www.w3.org/2000/svg" width="41" height="40" viewBox="0 0 41 40" fill="none">
  <g clip-path="url(#clip0_353_2343)">
    <path d="M18.7982 19.4883L17.6032 18.245C17.1438 17.7674 16.5136 17.4918 15.8511 17.4787C15.1885 17.4656 14.5479 17.716 14.0699 18.175C13.8332 18.4025 13.6436 18.6744 13.512 18.9752C13.3803 19.276 13.3092 19.5998 13.3027 19.928C13.2962 20.2563 13.3545 20.5826 13.4741 20.8884C13.5937 21.1941 13.7724 21.4733 13.9999 21.71L15.9316 23.72C16.2912 24.1008 16.7232 24.406 17.2023 24.6178C17.6814 24.8295 18.1979 24.9436 18.7216 24.9533H18.7832C19.8215 24.9503 20.8167 24.5384 21.5532 23.8067L28.1549 17.2033C28.6236 16.7345 28.8869 16.0988 28.8869 15.4358C28.8869 14.7729 28.6236 14.1372 28.1549 13.6683C27.9227 13.436 27.6471 13.2517 27.3436 13.126C27.0402 13.0003 26.715 12.9355 26.3866 12.9355C26.0581 12.9355 25.7329 13.0003 25.4295 13.126C25.1261 13.2517 24.8504 13.436 24.6182 13.6683L18.7982 19.4883Z" fill="#3F37C9"/>
    <path d="M20.1982 40C19.8486 40.0001 19.5028 39.9269 19.1832 39.785C18.5316 39.5 3.37989 32.615 3.37989 20V12.0783C3.37781 10.1538 3.98239 8.2776 5.1077 6.71635C6.23301 5.1551 7.82178 3.98826 9.64822 3.38168L19.4066 0.128348C19.9206 -0.0416432 20.4758 -0.0416432 20.9899 0.128348L30.7482 3.38168C32.5745 3.98849 34.1632 5.15538 35.2884 6.71658C36.4137 8.27778 37.0184 10.1539 37.0166 12.0783V20C37.0166 34.3633 21.6432 39.6534 20.9899 39.8717C20.7347 39.9571 20.4673 40.0004 20.1982 40ZM20.1982 5.13502L11.2299 8.12502C10.4 8.40142 9.67814 8.932 9.16662 9.64155C8.6551 10.3511 8.37985 11.2036 8.37989 12.0783V20C8.37989 27.8917 17.4149 33.2533 20.3266 34.775C23.2549 33.5533 32.0166 29.1367 32.0166 20V12.0783C32.0166 11.2036 31.7413 10.3511 31.2298 9.64155C30.7183 8.932 29.9964 8.40142 29.1666 8.12502L20.1982 5.13502Z" fill="#3F37C9"/>
  </g>
  <defs>
    <clipPath id="clip0_353_2343">
      <rect width="40" height="40" fill="white" transform="translate(0.198242)"/>
    </clipPath>
  </defs>
</svg>