<svg xmlns="http://www.w3.org/2000/svg" width="16" height="16" viewBox="0 0 16 16" fill="none">
  <g clip-path="url(#clip0_515_3372)">
    <path d="M11.7442 4.20646H9.71026L11.7956 2.03449C12.1558 1.65921 12.1433 1.06366 11.7686 0.703447C11.3934 0.343858 10.7984 0.355781 10.4376 0.730432L7.66506 3.61844L4.89252 0.730432C4.53293 0.355781 3.93675 0.343858 3.56148 0.703447C3.18683 1.06366 3.17428 1.65921 3.53449 2.03449L5.61986 4.20646H3.58595C1.68258 4.20646 0.134399 5.75464 0.134399 7.65801V12.0509C0.134399 13.9543 1.68258 15.5024 3.58595 15.5024H11.7442C13.6475 15.5024 15.1957 13.9543 15.1957 12.0509V7.65801C15.1957 5.75464 13.6475 4.20646 11.7442 4.20646ZM13.3131 12.0509C13.3131 12.9157 12.6089 13.6198 11.7442 13.6198H3.58595C2.72118 13.6198 2.01706 12.9157 2.01706 12.0509V7.65801C2.01706 6.79324 2.72118 6.08912 3.58595 6.08912H11.7442C12.6089 6.08912 13.3131 6.79324 13.3131 7.65801V12.0509ZM8.92017 7.97179V11.7371C8.92017 12.0835 8.63902 12.3647 8.29261 12.3647H3.89973C3.55332 12.3647 3.27217 12.0835 3.27217 11.7371V7.97179C3.27217 7.62538 3.55332 7.34423 3.89973 7.34423H8.29261C8.63902 7.34423 8.92017 7.62538 8.92017 7.97179ZM12.0579 8.28556C12.0579 8.80518 11.6362 9.2269 11.1166 9.2269C10.597 9.2269 10.1753 8.80518 10.1753 8.28556C10.1753 7.76595 10.597 7.34423 11.1166 7.34423C11.6362 7.34423 12.0579 7.76595 12.0579 8.28556ZM12.0579 11.4233C12.0579 11.943 11.6362 12.3647 11.1166 12.3647C10.597 12.3647 10.1753 11.943 10.1753 11.4233C10.1753 10.9037 10.597 10.482 11.1166 10.482C11.6362 10.482 12.0579 10.9037 12.0579 11.4233Z" fill="#FE3B3F"/>
  </g>
  <defs>
    <clipPath id="clip0_515_3372">
      <rect width="15.0613" height="15.0613" fill="white" transform="translate(0.134399 0.440918)"/>
    </clipPath>
  </defs>
</svg>