<svg xmlns="http://www.w3.org/2000/svg" width="21" height="19" viewBox="0 0 21 19" fill="none">
  <g clip-path="url(#clip0_512_3270)">
    <path d="M0.392092 0.121304C0.383895 0.133598 1.04783 1.03934 1.8634 2.1295C2.67898 3.21966 4.41258 5.53934 5.71586 7.28114L8.08471 10.4492L7.93308 10.6213C7.84701 10.7156 6.10521 12.5967 4.06422 14.8016C2.02324 17.0106 0.34701 18.8303 0.342912 18.8508C0.334715 18.8713 0.691273 18.8877 1.20357 18.8836L2.07652 18.8795L2.3634 18.5639C2.52324 18.3918 4.00685 16.7893 5.66258 14.9984C7.31832 13.2074 8.71996 11.691 8.77734 11.6254L8.8798 11.5065L9.69947 12.6049C10.1503 13.2074 11.3921 14.8713 12.4577 16.2975L14.4003 18.8877H17.3716C19.8429 18.8877 20.3388 18.8795 20.3224 18.8344C20.3101 18.8016 19.556 17.7852 18.6462 16.568C17.7364 15.3549 16.6954 13.9615 16.3347 13.4779C15.97 12.9943 14.9003 11.5557 13.9495 10.2893C12.9986 9.01884 12.22 7.96147 12.22 7.94507C12.22 7.91638 17.2446 2.46147 18.9536 0.637697L19.4413 0.117205H18.5437L17.6503 0.121304L16.6052 1.25245C16.0314 1.8754 14.6257 3.39999 13.4782 4.6336L11.4003 6.8795L8.8798 3.51065L6.35521 0.137697L3.3839 0.117205C1.74865 0.10491 0.400289 0.109009 0.392092 0.121304ZM7.43308 3.75245C8.40439 5.05573 9.90439 7.05983 10.765 8.21147C11.6257 9.35901 13.5355 11.9164 15.0109 13.8877C16.4864 15.8631 17.7077 17.4984 17.7282 17.527C17.7527 17.5639 17.4618 17.5762 16.4003 17.5762H15.0437L12.3552 13.9779C6.15029 5.68688 3.01914 1.49835 2.98226 1.43688C2.95767 1.39999 3.23635 1.3877 4.30603 1.3877H5.66258L7.43308 3.75245Z" fill="#09081D"/>
  </g>
  <defs>
    <clipPath id="clip0_512_3270">
      <rect width="20" height="18.8115" fill="white" transform="translate(0.334717 0.0761719)"/>
    </clipPath>
  </defs>
</svg>