<svg xmlns="http://www.w3.org/2000/svg" width="41" height="40" viewBox="0 0 41 40" fill="none">
  <g clip-path="url(#clip0_353_2323)">
    <path d="M20.8018 0C9.76842 0 0.801758 8.96667 0.801758 20C0.801758 31.0333 9.76842 40 20.8018 40C31.8351 40 40.8018 31.0333 40.8018 20C40.8018 8.96667 31.8351 0 20.8018 0ZM20.8018 35C12.5351 35 5.80176 28.2667 5.80176 20C5.80176 11.7333 12.5351 5 20.8018 5C29.0684 5 35.8018 11.7333 35.8018 20C35.8018 28.2667 29.0684 35 20.8018 35ZM17.4684 10C17.4684 8.16667 18.9684 6.66667 20.8018 6.66667C22.6351 6.66667 24.1351 8.16667 24.1351 10C24.1351 11.8333 22.6351 13.3333 20.8018 13.3333C18.9684 13.3333 17.4684 11.8333 17.4684 10ZM30.6018 14.0167C31.1518 15.2833 30.5518 16.75 29.2851 17.3L24.1351 19.5V22.6667L27.1351 27.9167C27.8184 29.1167 27.4018 30.65 26.2018 31.3333C25.8184 31.55 25.3851 31.6667 24.9684 31.6667C24.1018 31.6667 23.2518 31.2167 22.8018 30.4L20.8018 26.9L18.8018 30.4C18.3351 31.2 17.5018 31.6667 16.6351 31.6667C16.2184 31.6667 15.7851 31.5667 15.4018 31.3333C14.2018 30.65 13.7851 29.1167 14.4684 27.9167L17.4684 22.6667V19.5L12.3184 17.3C11.0518 16.75 10.4684 15.2833 11.0018 14.0167C11.5518 12.75 13.0184 12.15 14.2851 12.7L19.6518 15H21.9518L27.3184 12.7C28.5851 12.15 30.0518 12.75 30.6018 14.0167Z" fill="#3F37C9"/>
  </g>
  <defs>
    <clipPath id="clip0_353_2323">
      <rect width="40" height="40" fill="white" transform="translate(0.801758)"/>
    </clipPath>
  </defs>
</svg>