<svg xmlns="http://www.w3.org/2000/svg" width="16" height="16" viewBox="0 0 16 16" fill="none">
  <g clip-path="url(#clip0_515_3401)">
    <path d="M4.58987 10.1553C5.10954 10.1553 5.53082 9.73405 5.53082 9.21438C5.53082 8.69471 5.10954 8.27344 4.58987 8.27344C4.0702 8.27344 3.64893 8.69471 3.64893 9.21438C3.64893 9.73405 4.0702 10.1553 4.58987 10.1553Z" fill="#FF1EAD"/>
    <path d="M12.121 1.99792H3.96278C3.04768 1.99892 2.17034 2.36289 1.52327 3.00996C0.876192 3.65704 0.512227 4.53437 0.51123 5.44948L0.51123 9.84236C0.512227 10.7575 0.876192 11.6348 1.52327 12.2819C2.17034 12.929 3.04768 13.2929 3.96278 13.2939H12.121C13.0361 13.2929 13.9134 12.929 14.5605 12.2819C15.2076 11.6348 15.5716 10.7575 15.5725 9.84236V5.44948C15.5716 4.53437 15.2076 3.65704 14.5605 3.00996C13.9134 2.36289 13.0361 1.99892 12.121 1.99792ZM3.96278 3.88059H12.121C12.4826 3.88066 12.833 4.00562 13.1131 4.23432C13.3931 4.46302 13.5856 4.78144 13.6579 5.1357H2.4259C2.49821 4.78144 2.69067 4.46302 2.97072 4.23432C3.25077 4.00562 3.60121 3.88066 3.96278 3.88059ZM12.121 11.4112H3.96278C3.54669 11.4112 3.14763 11.246 2.85341 10.9517C2.55919 10.6575 2.3939 10.2585 2.3939 9.84236V7.01836H13.6899V9.84236C13.6899 10.2585 13.5246 10.6575 13.2304 10.9517C12.9361 11.246 12.5371 11.4112 12.121 11.4112Z" fill="#FF1EAD"/>
  </g>
  <defs>
    <clipPath id="clip0_515_3401">
      <rect width="15.0613" height="15.0613" fill="white" transform="translate(0.51123 0.115356)"/>
    </clipPath>
  </defs>
</svg>