<svg xmlns="http://www.w3.org/2000/svg" width="41" height="40" viewBox="0 0 41 40" fill="none">
  <g clip-path="url(#clip0_353_2317)">
    <path d="M20.1983 0C16.2426 0 12.3758 1.17298 9.08685 3.37061C5.79786 5.56824 3.23441 8.69181 1.72066 12.3463C0.206908 16.0009 -0.189159 20.0222 0.582546 23.9018C1.35425 27.7814 3.25907 31.3451 6.05612 34.1421C8.85317 36.9392 12.4168 38.844 16.2964 39.6157C20.1761 40.3874 24.1974 39.9913 27.8519 38.4776C31.5064 36.9638 34.63 34.4004 36.8276 31.1114C39.0253 27.8224 40.1982 23.9556 40.1982 20C40.1925 14.6974 38.0835 9.61368 34.3341 5.8642C30.5846 2.11471 25.5008 0.00573514 20.1983 0ZM36.8649 20C36.8669 23.2662 35.9032 26.46 34.0949 29.18L32.1083 27.1917C31.9525 27.0355 31.865 26.8239 31.8649 26.6033V25C31.8649 23.6739 31.3381 22.4021 30.4005 21.4645C29.4628 20.5268 28.191 20 26.8649 20H21.8649C21.4229 20 20.999 19.8244 20.6864 19.5118C20.3738 19.1993 20.1983 18.7754 20.1983 18.3333V17.5C20.1983 17.279 20.286 17.067 20.4423 16.9107C20.5986 16.7545 20.8106 16.6667 21.0316 16.6667C22.1367 16.6667 23.1965 16.2277 23.9779 15.4463C24.7593 14.6649 25.1983 13.6051 25.1983 12.5V10.8333C25.1983 10.6123 25.286 10.4004 25.4423 10.2441C25.5986 10.0878 25.8106 10 26.0316 10H28.3299C29.4339 9.99686 30.4921 9.55848 31.2749 8.78L31.9033 8.15167C33.4752 9.69846 34.7235 11.5427 35.5754 13.577C36.4273 15.6112 36.8656 17.7946 36.8649 20ZM3.61325 21.605L8.87658 26.8683C9.33975 27.3345 9.89088 27.704 10.498 27.9555C11.1051 28.207 11.7561 28.3354 12.4133 28.3333H16.8649C17.3069 28.3333 17.7309 28.5089 18.0434 28.8215C18.356 29.1341 18.5316 29.558 18.5316 30V36.5817C14.6986 36.1904 11.1189 34.4853 8.3998 31.7555C5.68069 29.0258 3.98955 25.4395 3.61325 21.605ZM21.8649 36.5817V30C21.8649 28.6739 21.3381 27.4021 20.4005 26.4645C19.4628 25.5268 18.191 25 16.8649 25H12.4133C12.1941 25.0002 11.9771 24.9571 11.7746 24.8733C11.5721 24.7895 11.3882 24.6666 11.2333 24.5117L3.80325 17.0817C4.28021 14.3703 5.42281 11.8198 7.12854 9.65897C8.83427 7.49811 11.0498 5.79451 13.5762 4.70102C16.1027 3.60753 18.8611 3.15836 21.604 3.3938C24.3469 3.62925 26.9884 4.54194 29.2916 6.05L28.9183 6.42333C28.7614 6.57805 28.5503 6.66536 28.3299 6.66667H26.0316C24.9265 6.66667 23.8667 7.10565 23.0853 7.88706C22.3039 8.66846 21.8649 9.72826 21.8649 10.8333V12.5C21.8649 12.721 21.7771 12.933 21.6208 13.0893C21.4646 13.2455 21.2526 13.3333 21.0316 13.3333C19.9265 13.3333 18.8667 13.7723 18.0853 14.5537C17.3039 15.3351 16.8649 16.3949 16.8649 17.5V18.3333C16.8649 19.6594 17.3917 20.9312 18.3294 21.8689C19.2671 22.8066 20.5388 23.3333 21.8649 23.3333H26.8649C27.3069 23.3333 27.7309 23.5089 28.0434 23.8215C28.356 24.1341 28.5316 24.558 28.5316 25V26.6033C28.5347 27.7073 28.9731 28.7655 29.7516 29.5483L31.9799 31.7767C29.2657 34.5003 25.6909 36.1984 21.8649 36.5817Z" fill="#3F37C9"/>
  </g>
  <defs>
    <clipPath id="clip0_353_2317">
      <rect width="40" height="40" fill="white" transform="translate(0.198242)"/>
    </clipPath>
  </defs>
</svg>